<?xml version="1.0" encoding="utf-8"?>
<svg xmlns="http://www.w3.org/2000/svg" xmlns:xlink="http://www.w3.org/1999/xlink" width="528" height="336" viewBox="0 0 2112 1344">
<defs>
  <clipPath id="clip250">
    <rect x="0" y="0" width="2112" height="1344"/>
  </clipPath>
</defs>
<path clip-path="url(#clip250)" d="M0 1344 L2112 1344 L2112 0 L0 0  Z" fill="#ffffff" fill-rule="evenodd" fill-opacity="1"/>
<defs>
  <clipPath id="clip251">
    <rect x="422" y="0" width="1479" height="1344"/>
  </clipPath>
</defs>
<path clip-path="url(#clip250)" d="M136.079 1234.58 L2064.76 1234.58 L2064.76 47.2441 L136.079 47.2441  Z" fill="#ffffff" fill-rule="evenodd" fill-opacity="1"/>
<defs>
  <clipPath id="clip252">
    <rect x="136" y="47" width="1930" height="1188"/>
  </clipPath>
</defs>
<polyline clip-path="url(#clip252)" style="stroke:#000000; stroke-linecap:round; stroke-linejoin:round; stroke-width:2; stroke-opacity:0.1; fill:none" points="190.665,1234.58 190.665,47.2441 "/>
<polyline clip-path="url(#clip252)" style="stroke:#000000; stroke-linecap:round; stroke-linejoin:round; stroke-width:2; stroke-opacity:0.1; fill:none" points="493.916,1234.58 493.916,47.2441 "/>
<polyline clip-path="url(#clip252)" style="stroke:#000000; stroke-linecap:round; stroke-linejoin:round; stroke-width:2; stroke-opacity:0.1; fill:none" points="797.167,1234.58 797.167,47.2441 "/>
<polyline clip-path="url(#clip252)" style="stroke:#000000; stroke-linecap:round; stroke-linejoin:round; stroke-width:2; stroke-opacity:0.1; fill:none" points="1100.42,1234.58 1100.42,47.2441 "/>
<polyline clip-path="url(#clip252)" style="stroke:#000000; stroke-linecap:round; stroke-linejoin:round; stroke-width:2; stroke-opacity:0.1; fill:none" points="1403.67,1234.58 1403.67,47.2441 "/>
<polyline clip-path="url(#clip252)" style="stroke:#000000; stroke-linecap:round; stroke-linejoin:round; stroke-width:2; stroke-opacity:0.1; fill:none" points="1706.92,1234.58 1706.92,47.2441 "/>
<polyline clip-path="url(#clip252)" style="stroke:#000000; stroke-linecap:round; stroke-linejoin:round; stroke-width:2; stroke-opacity:0.1; fill:none" points="2010.17,1234.58 2010.17,47.2441 "/>
<polyline clip-path="url(#clip250)" style="stroke:#000000; stroke-linecap:round; stroke-linejoin:round; stroke-width:4; stroke-opacity:1; fill:none" points="136.079,1234.58 2064.76,1234.58 "/>
<polyline clip-path="url(#clip250)" style="stroke:#000000; stroke-linecap:round; stroke-linejoin:round; stroke-width:4; stroke-opacity:1; fill:none" points="190.665,1234.58 190.665,1215.68 "/>
<polyline clip-path="url(#clip250)" style="stroke:#000000; stroke-linecap:round; stroke-linejoin:round; stroke-width:4; stroke-opacity:1; fill:none" points="493.916,1234.58 493.916,1215.68 "/>
<polyline clip-path="url(#clip250)" style="stroke:#000000; stroke-linecap:round; stroke-linejoin:round; stroke-width:4; stroke-opacity:1; fill:none" points="797.167,1234.58 797.167,1215.68 "/>
<polyline clip-path="url(#clip250)" style="stroke:#000000; stroke-linecap:round; stroke-linejoin:round; stroke-width:4; stroke-opacity:1; fill:none" points="1100.42,1234.58 1100.42,1215.68 "/>
<polyline clip-path="url(#clip250)" style="stroke:#000000; stroke-linecap:round; stroke-linejoin:round; stroke-width:4; stroke-opacity:1; fill:none" points="1403.67,1234.58 1403.67,1215.68 "/>
<polyline clip-path="url(#clip250)" style="stroke:#000000; stroke-linecap:round; stroke-linejoin:round; stroke-width:4; stroke-opacity:1; fill:none" points="1706.92,1234.58 1706.92,1215.68 "/>
<polyline clip-path="url(#clip250)" style="stroke:#000000; stroke-linecap:round; stroke-linejoin:round; stroke-width:4; stroke-opacity:1; fill:none" points="2010.17,1234.58 2010.17,1215.68 "/>
<path clip-path="url(#clip250)" d="M160.132 1277.85 L189.808 1277.85 L189.808 1281.78 L160.132 1281.78 L160.132 1277.85 Z" fill="#000000" fill-rule="nonzero" fill-opacity="1" /><path clip-path="url(#clip250)" d="M214.067 1276.04 Q217.424 1276.76 219.299 1279.03 Q221.197 1281.3 221.197 1284.63 Q221.197 1289.74 217.678 1292.55 Q214.16 1295.35 207.678 1295.35 Q205.503 1295.35 203.188 1294.91 Q200.896 1294.49 198.442 1293.63 L198.442 1289.12 Q200.387 1290.25 202.702 1290.83 Q205.016 1291.41 207.54 1291.41 Q211.938 1291.41 214.229 1289.67 Q216.544 1287.94 216.544 1284.63 Q216.544 1281.57 214.391 1279.86 Q212.262 1278.12 208.442 1278.12 L204.415 1278.12 L204.415 1274.28 L208.627 1274.28 Q212.077 1274.28 213.905 1272.92 Q215.734 1271.53 215.734 1268.93 Q215.734 1266.27 213.836 1264.86 Q211.961 1263.42 208.442 1263.42 Q206.521 1263.42 204.322 1263.84 Q202.123 1264.26 199.484 1265.14 L199.484 1260.97 Q202.146 1260.23 204.461 1259.86 Q206.799 1259.49 208.859 1259.49 Q214.183 1259.49 217.285 1261.92 Q220.387 1264.33 220.387 1268.45 Q220.387 1271.32 218.743 1273.31 Q217.1 1275.28 214.067 1276.04 Z" fill="#000000" fill-rule="nonzero" fill-opacity="1" /><path clip-path="url(#clip250)" d="M463.858 1277.85 L493.534 1277.85 L493.534 1281.78 L463.858 1281.78 L463.858 1277.85 Z" fill="#000000" fill-rule="nonzero" fill-opacity="1" /><path clip-path="url(#clip250)" d="M507.654 1290.74 L523.973 1290.74 L523.973 1294.67 L502.029 1294.67 L502.029 1290.74 Q504.691 1287.99 509.274 1283.36 Q513.881 1278.7 515.061 1277.36 Q517.307 1274.84 518.186 1273.1 Q519.089 1271.34 519.089 1269.65 Q519.089 1266.9 517.145 1265.16 Q515.223 1263.42 512.122 1263.42 Q509.922 1263.42 507.469 1264.19 Q505.038 1264.95 502.261 1266.5 L502.261 1261.78 Q505.085 1260.65 507.538 1260.07 Q509.992 1259.49 512.029 1259.49 Q517.399 1259.49 520.594 1262.17 Q523.788 1264.86 523.788 1269.35 Q523.788 1271.48 522.978 1273.4 Q522.191 1275.3 520.084 1277.89 Q519.506 1278.56 516.404 1281.78 Q513.302 1284.98 507.654 1290.74 Z" fill="#000000" fill-rule="nonzero" fill-opacity="1" /><path clip-path="url(#clip250)" d="M766.924 1277.85 L796.6 1277.85 L796.6 1281.78 L766.924 1281.78 L766.924 1277.85 Z" fill="#000000" fill-rule="nonzero" fill-opacity="1" /><path clip-path="url(#clip250)" d="M807.502 1290.74 L815.141 1290.74 L815.141 1264.37 L806.831 1266.04 L806.831 1261.78 L815.095 1260.11 L819.771 1260.11 L819.771 1290.74 L827.41 1290.74 L827.41 1294.67 L807.502 1294.67 L807.502 1290.74 Z" fill="#000000" fill-rule="nonzero" fill-opacity="1" /><path clip-path="url(#clip250)" d="M1100.42 1263.19 Q1096.81 1263.19 1094.98 1266.76 Q1093.17 1270.3 1093.17 1277.43 Q1093.17 1284.54 1094.98 1288.1 Q1096.81 1291.64 1100.42 1291.64 Q1104.05 1291.64 1105.86 1288.1 Q1107.69 1284.54 1107.69 1277.43 Q1107.69 1270.3 1105.86 1266.76 Q1104.05 1263.19 1100.42 1263.19 M1100.42 1259.49 Q1106.23 1259.49 1109.28 1264.1 Q1112.36 1268.68 1112.36 1277.43 Q1112.36 1286.16 1109.28 1290.76 Q1106.23 1295.35 1100.42 1295.35 Q1094.61 1295.35 1091.53 1290.76 Q1088.47 1286.16 1088.47 1277.43 Q1088.47 1268.68 1091.53 1264.1 Q1094.61 1259.49 1100.42 1259.49 Z" fill="#000000" fill-rule="nonzero" fill-opacity="1" /><path clip-path="url(#clip250)" d="M1394.05 1290.74 L1401.69 1290.74 L1401.69 1264.37 L1393.38 1266.04 L1393.38 1261.78 L1401.64 1260.11 L1406.32 1260.11 L1406.32 1290.74 L1413.96 1290.74 L1413.96 1294.67 L1394.05 1294.67 L1394.05 1290.74 Z" fill="#000000" fill-rule="nonzero" fill-opacity="1" /><path clip-path="url(#clip250)" d="M1701.57 1290.74 L1717.89 1290.74 L1717.89 1294.67 L1695.95 1294.67 L1695.95 1290.74 Q1698.61 1287.99 1703.19 1283.36 Q1707.8 1278.7 1708.98 1277.36 Q1711.23 1274.84 1712.1 1273.1 Q1713.01 1271.34 1713.01 1269.65 Q1713.01 1266.9 1711.06 1265.16 Q1709.14 1263.42 1706.04 1263.42 Q1703.84 1263.42 1701.39 1264.19 Q1698.96 1264.95 1696.18 1266.5 L1696.18 1261.78 Q1699 1260.65 1701.46 1260.07 Q1703.91 1259.49 1705.95 1259.49 Q1711.32 1259.49 1714.51 1262.17 Q1717.71 1264.86 1717.71 1269.35 Q1717.71 1271.48 1716.9 1273.4 Q1716.11 1275.3 1714 1277.89 Q1713.42 1278.56 1710.32 1281.78 Q1707.22 1284.98 1701.57 1290.74 Z" fill="#000000" fill-rule="nonzero" fill-opacity="1" /><path clip-path="url(#clip250)" d="M2014.42 1276.04 Q2017.77 1276.76 2019.65 1279.03 Q2021.55 1281.3 2021.55 1284.63 Q2021.55 1289.74 2018.03 1292.55 Q2014.51 1295.35 2008.03 1295.35 Q2005.85 1295.35 2003.54 1294.91 Q2001.25 1294.49 1998.79 1293.63 L1998.79 1289.12 Q2000.74 1290.25 2003.05 1290.83 Q2005.37 1291.41 2007.89 1291.41 Q2012.29 1291.41 2014.58 1289.67 Q2016.9 1287.94 2016.9 1284.63 Q2016.9 1281.57 2014.74 1279.86 Q2012.61 1278.12 2008.79 1278.12 L2004.77 1278.12 L2004.77 1274.28 L2008.98 1274.28 Q2012.43 1274.28 2014.26 1272.92 Q2016.09 1271.53 2016.09 1268.93 Q2016.09 1266.27 2014.19 1264.86 Q2012.31 1263.42 2008.79 1263.42 Q2006.87 1263.42 2004.67 1263.84 Q2002.47 1264.26 1999.84 1265.14 L1999.84 1260.97 Q2002.5 1260.23 2004.81 1259.86 Q2007.15 1259.49 2009.21 1259.49 Q2014.53 1259.49 2017.64 1261.92 Q2020.74 1264.33 2020.74 1268.45 Q2020.74 1271.32 2019.09 1273.31 Q2017.45 1275.28 2014.42 1276.04 Z" fill="#000000" fill-rule="nonzero" fill-opacity="1" /><polyline clip-path="url(#clip252)" style="stroke:#000000; stroke-linecap:round; stroke-linejoin:round; stroke-width:2; stroke-opacity:0.1; fill:none" points="136.079,1151.14 2064.76,1151.14 "/>
<polyline clip-path="url(#clip252)" style="stroke:#000000; stroke-linecap:round; stroke-linejoin:round; stroke-width:2; stroke-opacity:0.1; fill:none" points="136.079,912.24 2064.76,912.24 "/>
<polyline clip-path="url(#clip252)" style="stroke:#000000; stroke-linecap:round; stroke-linejoin:round; stroke-width:2; stroke-opacity:0.1; fill:none" points="136.079,673.34 2064.76,673.34 "/>
<polyline clip-path="url(#clip252)" style="stroke:#000000; stroke-linecap:round; stroke-linejoin:round; stroke-width:2; stroke-opacity:0.1; fill:none" points="136.079,434.44 2064.76,434.44 "/>
<polyline clip-path="url(#clip252)" style="stroke:#000000; stroke-linecap:round; stroke-linejoin:round; stroke-width:2; stroke-opacity:0.1; fill:none" points="136.079,195.54 2064.76,195.54 "/>
<polyline clip-path="url(#clip250)" style="stroke:#000000; stroke-linecap:round; stroke-linejoin:round; stroke-width:4; stroke-opacity:1; fill:none" points="136.079,1234.58 136.079,47.2441 "/>
<polyline clip-path="url(#clip250)" style="stroke:#000000; stroke-linecap:round; stroke-linejoin:round; stroke-width:4; stroke-opacity:1; fill:none" points="136.079,1151.14 154.977,1151.14 "/>
<polyline clip-path="url(#clip250)" style="stroke:#000000; stroke-linecap:round; stroke-linejoin:round; stroke-width:4; stroke-opacity:1; fill:none" points="136.079,912.24 154.977,912.24 "/>
<polyline clip-path="url(#clip250)" style="stroke:#000000; stroke-linecap:round; stroke-linejoin:round; stroke-width:4; stroke-opacity:1; fill:none" points="136.079,673.34 154.977,673.34 "/>
<polyline clip-path="url(#clip250)" style="stroke:#000000; stroke-linecap:round; stroke-linejoin:round; stroke-width:4; stroke-opacity:1; fill:none" points="136.079,434.44 154.977,434.44 "/>
<polyline clip-path="url(#clip250)" style="stroke:#000000; stroke-linecap:round; stroke-linejoin:round; stroke-width:4; stroke-opacity:1; fill:none" points="136.079,195.54 154.977,195.54 "/>
<path clip-path="url(#clip250)" d="M88.0801 1164.49 L104.399 1164.49 L104.399 1168.42 L82.4551 1168.42 L82.4551 1164.49 Q85.1171 1161.73 89.7004 1157.1 Q94.3069 1152.45 95.4875 1151.11 Q97.7328 1148.58 98.6124 1146.85 Q99.5152 1145.09 99.5152 1143.4 Q99.5152 1140.64 97.5708 1138.91 Q95.6495 1137.17 92.5477 1137.17 Q90.3486 1137.17 87.8949 1137.93 Q85.4644 1138.7 82.6866 1140.25 L82.6866 1135.53 Q85.5107 1134.39 87.9643 1133.81 Q90.418 1133.24 92.4551 1133.24 Q97.8254 1133.24 101.02 1135.92 Q104.214 1138.61 104.214 1143.1 Q104.214 1145.23 103.404 1147.15 Q102.617 1149.05 100.511 1151.64 Q99.9319 1152.31 96.83 1155.53 Q93.7282 1158.72 88.0801 1164.49 Z" fill="#000000" fill-rule="nonzero" fill-opacity="1" /><path clip-path="url(#clip250)" d="M94.8162 899.034 L83.0107 917.483 L94.8162 917.483 L94.8162 899.034 M93.5893 894.96 L99.4689 894.96 L99.4689 917.483 L104.399 917.483 L104.399 921.372 L99.4689 921.372 L99.4689 929.52 L94.8162 929.52 L94.8162 921.372 L79.2144 921.372 L79.2144 916.858 L93.5893 894.96 Z" fill="#000000" fill-rule="nonzero" fill-opacity="1" /><path clip-path="url(#clip250)" d="M92.8717 671.477 Q89.7236 671.477 87.8718 673.63 Q86.0431 675.782 86.0431 679.532 Q86.0431 683.259 87.8718 685.435 Q89.7236 687.588 92.8717 687.588 Q96.0199 687.588 97.8485 685.435 Q99.7004 683.259 99.7004 679.532 Q99.7004 675.782 97.8485 673.63 Q96.0199 671.477 92.8717 671.477 M102.154 656.824 L102.154 661.083 Q100.395 660.25 98.5893 659.81 Q96.8069 659.37 95.0476 659.37 Q90.418 659.37 87.9643 662.495 Q85.5338 665.62 85.1866 671.94 Q86.5523 669.926 88.6125 668.861 Q90.6727 667.773 93.1495 667.773 Q98.3578 667.773 101.367 670.944 Q104.399 674.093 104.399 679.532 Q104.399 684.856 101.251 688.074 Q98.1032 691.292 92.8717 691.292 Q86.8764 691.292 83.7051 686.708 Q80.5338 682.102 80.5338 673.375 Q80.5338 665.181 84.4227 660.319 Q88.3116 655.435 94.8625 655.435 Q96.6217 655.435 98.4041 655.782 Q100.21 656.13 102.154 656.824 Z" fill="#000000" fill-rule="nonzero" fill-opacity="1" /><path clip-path="url(#clip250)" d="M92.5477 435.308 Q89.2143 435.308 87.2931 437.091 Q85.3949 438.873 85.3949 441.998 Q85.3949 445.123 87.2931 446.905 Q89.2143 448.688 92.5477 448.688 Q95.881 448.688 97.8023 446.905 Q99.7235 445.1 99.7235 441.998 Q99.7235 438.873 97.8023 437.091 Q95.9041 435.308 92.5477 435.308 M87.8718 433.318 Q84.8625 432.577 83.1727 430.517 Q81.506 428.456 81.506 425.494 Q81.506 421.35 84.4458 418.943 Q87.4088 416.535 92.5477 416.535 Q97.7097 416.535 100.649 418.943 Q103.589 421.35 103.589 425.494 Q103.589 428.456 101.899 430.517 Q100.233 432.577 97.2467 433.318 Q100.626 434.105 102.501 436.396 Q104.399 438.688 104.399 441.998 Q104.399 447.021 101.321 449.706 Q98.2652 452.392 92.5477 452.392 Q86.8301 452.392 83.7514 449.706 Q80.6959 447.021 80.6959 441.998 Q80.6959 438.688 82.594 436.396 Q84.4921 434.105 87.8718 433.318 M86.1588 425.933 Q86.1588 428.618 87.8255 430.123 Q89.5153 431.628 92.5477 431.628 Q95.5569 431.628 97.2467 430.123 Q98.9597 428.618 98.9597 425.933 Q98.9597 423.248 97.2467 421.744 Q95.5569 420.239 92.5477 420.239 Q89.5153 420.239 87.8255 421.744 Q86.1588 423.248 86.1588 425.933 Z" fill="#000000" fill-rule="nonzero" fill-opacity="1" /><path clip-path="url(#clip250)" d="M53.1034 208.885 L60.7423 208.885 L60.7423 182.519 L52.4321 184.186 L52.4321 179.927 L60.696 178.26 L65.3719 178.26 L65.3719 208.885 L73.0107 208.885 L73.0107 212.82 L53.1034 212.82 L53.1034 208.885 Z" fill="#000000" fill-rule="nonzero" fill-opacity="1" /><path clip-path="url(#clip250)" d="M92.4551 181.339 Q88.844 181.339 87.0153 184.904 Q85.2097 188.445 85.2097 195.575 Q85.2097 202.681 87.0153 206.246 Q88.844 209.788 92.4551 209.788 Q96.0893 209.788 97.8948 206.246 Q99.7235 202.681 99.7235 195.575 Q99.7235 188.445 97.8948 184.904 Q96.0893 181.339 92.4551 181.339 M92.4551 177.635 Q98.2652 177.635 101.321 182.242 Q104.399 186.825 104.399 195.575 Q104.399 204.302 101.321 208.908 Q98.2652 213.492 92.4551 213.492 Q86.6449 213.492 83.5662 208.908 Q80.5107 204.302 80.5107 195.575 Q80.5107 186.825 83.5662 182.242 Q86.6449 177.635 92.4551 177.635 Z" fill="#000000" fill-rule="nonzero" fill-opacity="1" /><circle clip-path="url(#clip252)" cx="190.665" cy="80.8479" r="14.4" fill="#009af9" fill-rule="evenodd" fill-opacity="1" stroke="#000000" stroke-opacity="1" stroke-width="2.688"/>
<circle clip-path="url(#clip252)" cx="220.99" cy="160.24" r="14.4" fill="#009af9" fill-rule="evenodd" fill-opacity="1" stroke="#000000" stroke-opacity="1" stroke-width="2.688"/>
<circle clip-path="url(#clip252)" cx="251.315" cy="241.461" r="14.4" fill="#009af9" fill-rule="evenodd" fill-opacity="1" stroke="#000000" stroke-opacity="1" stroke-width="2.688"/>
<circle clip-path="url(#clip252)" cx="281.64" cy="323.986" r="14.4" fill="#009af9" fill-rule="evenodd" fill-opacity="1" stroke="#000000" stroke-opacity="1" stroke-width="2.688"/>
<circle clip-path="url(#clip252)" cx="311.965" cy="407.144" r="14.4" fill="#009af9" fill-rule="evenodd" fill-opacity="1" stroke="#000000" stroke-opacity="1" stroke-width="2.688"/>
<circle clip-path="url(#clip252)" cx="342.29" cy="490.144" r="14.4" fill="#009af9" fill-rule="evenodd" fill-opacity="1" stroke="#000000" stroke-opacity="1" stroke-width="2.688"/>
<circle clip-path="url(#clip252)" cx="372.615" cy="572.106" r="14.4" fill="#009af9" fill-rule="evenodd" fill-opacity="1" stroke="#000000" stroke-opacity="1" stroke-width="2.688"/>
<circle clip-path="url(#clip252)" cx="402.94" cy="652.096" r="14.4" fill="#009af9" fill-rule="evenodd" fill-opacity="1" stroke="#000000" stroke-opacity="1" stroke-width="2.688"/>
<circle clip-path="url(#clip252)" cx="433.265" cy="729.163" r="14.4" fill="#009af9" fill-rule="evenodd" fill-opacity="1" stroke="#000000" stroke-opacity="1" stroke-width="2.688"/>
<circle clip-path="url(#clip252)" cx="463.591" cy="802.377" r="14.4" fill="#009af9" fill-rule="evenodd" fill-opacity="1" stroke="#000000" stroke-opacity="1" stroke-width="2.688"/>
<circle clip-path="url(#clip252)" cx="493.916" cy="870.868" r="14.4" fill="#009af9" fill-rule="evenodd" fill-opacity="1" stroke="#000000" stroke-opacity="1" stroke-width="2.688"/>
<circle clip-path="url(#clip252)" cx="524.241" cy="933.857" r="14.4" fill="#009af9" fill-rule="evenodd" fill-opacity="1" stroke="#000000" stroke-opacity="1" stroke-width="2.688"/>
<circle clip-path="url(#clip252)" cx="554.566" cy="990.69" r="14.4" fill="#009af9" fill-rule="evenodd" fill-opacity="1" stroke="#000000" stroke-opacity="1" stroke-width="2.688"/>
<circle clip-path="url(#clip252)" cx="584.891" cy="1040.86" r="14.4" fill="#009af9" fill-rule="evenodd" fill-opacity="1" stroke="#000000" stroke-opacity="1" stroke-width="2.688"/>
<circle clip-path="url(#clip252)" cx="615.216" cy="1084.04" r="14.4" fill="#009af9" fill-rule="evenodd" fill-opacity="1" stroke="#000000" stroke-opacity="1" stroke-width="2.688"/>
<circle clip-path="url(#clip252)" cx="645.541" cy="1120.08" r="14.4" fill="#009af9" fill-rule="evenodd" fill-opacity="1" stroke="#000000" stroke-opacity="1" stroke-width="2.688"/>
<circle clip-path="url(#clip252)" cx="675.866" cy="1149.02" r="14.4" fill="#009af9" fill-rule="evenodd" fill-opacity="1" stroke="#000000" stroke-opacity="1" stroke-width="2.688"/>
<circle clip-path="url(#clip252)" cx="706.191" cy="1171.08" r="14.4" fill="#009af9" fill-rule="evenodd" fill-opacity="1" stroke="#000000" stroke-opacity="1" stroke-width="2.688"/>
<circle clip-path="url(#clip252)" cx="736.516" cy="1186.66" r="14.4" fill="#009af9" fill-rule="evenodd" fill-opacity="1" stroke="#000000" stroke-opacity="1" stroke-width="2.688"/>
<circle clip-path="url(#clip252)" cx="766.842" cy="1196.35" r="14.4" fill="#009af9" fill-rule="evenodd" fill-opacity="1" stroke="#000000" stroke-opacity="1" stroke-width="2.688"/>
<circle clip-path="url(#clip252)" cx="797.167" cy="1200.85" r="14.4" fill="#009af9" fill-rule="evenodd" fill-opacity="1" stroke="#000000" stroke-opacity="1" stroke-width="2.688"/>
<circle clip-path="url(#clip252)" cx="827.492" cy="1200.97" r="14.4" fill="#009af9" fill-rule="evenodd" fill-opacity="1" stroke="#000000" stroke-opacity="1" stroke-width="2.688"/>
<circle clip-path="url(#clip252)" cx="857.817" cy="1197.63" r="14.4" fill="#009af9" fill-rule="evenodd" fill-opacity="1" stroke="#000000" stroke-opacity="1" stroke-width="2.688"/>
<circle clip-path="url(#clip252)" cx="888.142" cy="1191.76" r="14.4" fill="#009af9" fill-rule="evenodd" fill-opacity="1" stroke="#000000" stroke-opacity="1" stroke-width="2.688"/>
<circle clip-path="url(#clip252)" cx="918.467" cy="1184.3" r="14.4" fill="#009af9" fill-rule="evenodd" fill-opacity="1" stroke="#000000" stroke-opacity="1" stroke-width="2.688"/>
<circle clip-path="url(#clip252)" cx="948.792" cy="1176.19" r="14.4" fill="#009af9" fill-rule="evenodd" fill-opacity="1" stroke="#000000" stroke-opacity="1" stroke-width="2.688"/>
<circle clip-path="url(#clip252)" cx="979.117" cy="1168.26" r="14.4" fill="#009af9" fill-rule="evenodd" fill-opacity="1" stroke="#000000" stroke-opacity="1" stroke-width="2.688"/>
<circle clip-path="url(#clip252)" cx="1009.44" cy="1161.25" r="14.4" fill="#009af9" fill-rule="evenodd" fill-opacity="1" stroke="#000000" stroke-opacity="1" stroke-width="2.688"/>
<circle clip-path="url(#clip252)" cx="1039.77" cy="1155.79" r="14.4" fill="#009af9" fill-rule="evenodd" fill-opacity="1" stroke="#000000" stroke-opacity="1" stroke-width="2.688"/>
<circle clip-path="url(#clip252)" cx="1070.09" cy="1152.33" r="14.4" fill="#009af9" fill-rule="evenodd" fill-opacity="1" stroke="#000000" stroke-opacity="1" stroke-width="2.688"/>
<circle clip-path="url(#clip252)" cx="1100.42" cy="1151.14" r="14.4" fill="#009af9" fill-rule="evenodd" fill-opacity="1" stroke="#000000" stroke-opacity="1" stroke-width="2.688"/>
<circle clip-path="url(#clip252)" cx="1130.74" cy="1152.33" r="14.4" fill="#009af9" fill-rule="evenodd" fill-opacity="1" stroke="#000000" stroke-opacity="1" stroke-width="2.688"/>
<circle clip-path="url(#clip252)" cx="1161.07" cy="1155.79" r="14.4" fill="#009af9" fill-rule="evenodd" fill-opacity="1" stroke="#000000" stroke-opacity="1" stroke-width="2.688"/>
<circle clip-path="url(#clip252)" cx="1191.39" cy="1161.25" r="14.4" fill="#009af9" fill-rule="evenodd" fill-opacity="1" stroke="#000000" stroke-opacity="1" stroke-width="2.688"/>
<circle clip-path="url(#clip252)" cx="1221.72" cy="1168.26" r="14.4" fill="#009af9" fill-rule="evenodd" fill-opacity="1" stroke="#000000" stroke-opacity="1" stroke-width="2.688"/>
<circle clip-path="url(#clip252)" cx="1252.04" cy="1176.19" r="14.4" fill="#009af9" fill-rule="evenodd" fill-opacity="1" stroke="#000000" stroke-opacity="1" stroke-width="2.688"/>
<circle clip-path="url(#clip252)" cx="1282.37" cy="1184.3" r="14.4" fill="#009af9" fill-rule="evenodd" fill-opacity="1" stroke="#000000" stroke-opacity="1" stroke-width="2.688"/>
<circle clip-path="url(#clip252)" cx="1312.69" cy="1191.76" r="14.4" fill="#009af9" fill-rule="evenodd" fill-opacity="1" stroke="#000000" stroke-opacity="1" stroke-width="2.688"/>
<circle clip-path="url(#clip252)" cx="1343.02" cy="1197.63" r="14.4" fill="#009af9" fill-rule="evenodd" fill-opacity="1" stroke="#000000" stroke-opacity="1" stroke-width="2.688"/>
<circle clip-path="url(#clip252)" cx="1373.34" cy="1200.97" r="14.4" fill="#009af9" fill-rule="evenodd" fill-opacity="1" stroke="#000000" stroke-opacity="1" stroke-width="2.688"/>
<circle clip-path="url(#clip252)" cx="1403.67" cy="1200.85" r="14.4" fill="#009af9" fill-rule="evenodd" fill-opacity="1" stroke="#000000" stroke-opacity="1" stroke-width="2.688"/>
<circle clip-path="url(#clip252)" cx="1433.99" cy="1196.35" r="14.4" fill="#009af9" fill-rule="evenodd" fill-opacity="1" stroke="#000000" stroke-opacity="1" stroke-width="2.688"/>
<circle clip-path="url(#clip252)" cx="1464.32" cy="1186.66" r="14.4" fill="#009af9" fill-rule="evenodd" fill-opacity="1" stroke="#000000" stroke-opacity="1" stroke-width="2.688"/>
<circle clip-path="url(#clip252)" cx="1494.64" cy="1171.08" r="14.4" fill="#009af9" fill-rule="evenodd" fill-opacity="1" stroke="#000000" stroke-opacity="1" stroke-width="2.688"/>
<circle clip-path="url(#clip252)" cx="1524.97" cy="1149.02" r="14.4" fill="#009af9" fill-rule="evenodd" fill-opacity="1" stroke="#000000" stroke-opacity="1" stroke-width="2.688"/>
<circle clip-path="url(#clip252)" cx="1555.29" cy="1120.08" r="14.4" fill="#009af9" fill-rule="evenodd" fill-opacity="1" stroke="#000000" stroke-opacity="1" stroke-width="2.688"/>
<circle clip-path="url(#clip252)" cx="1585.62" cy="1084.04" r="14.4" fill="#009af9" fill-rule="evenodd" fill-opacity="1" stroke="#000000" stroke-opacity="1" stroke-width="2.688"/>
<circle clip-path="url(#clip252)" cx="1615.94" cy="1040.86" r="14.4" fill="#009af9" fill-rule="evenodd" fill-opacity="1" stroke="#000000" stroke-opacity="1" stroke-width="2.688"/>
<circle clip-path="url(#clip252)" cx="1646.27" cy="990.69" r="14.4" fill="#009af9" fill-rule="evenodd" fill-opacity="1" stroke="#000000" stroke-opacity="1" stroke-width="2.688"/>
<circle clip-path="url(#clip252)" cx="1676.59" cy="933.857" r="14.4" fill="#009af9" fill-rule="evenodd" fill-opacity="1" stroke="#000000" stroke-opacity="1" stroke-width="2.688"/>
<circle clip-path="url(#clip252)" cx="1706.92" cy="870.868" r="14.4" fill="#009af9" fill-rule="evenodd" fill-opacity="1" stroke="#000000" stroke-opacity="1" stroke-width="2.688"/>
<circle clip-path="url(#clip252)" cx="1737.24" cy="802.377" r="14.4" fill="#009af9" fill-rule="evenodd" fill-opacity="1" stroke="#000000" stroke-opacity="1" stroke-width="2.688"/>
<circle clip-path="url(#clip252)" cx="1767.57" cy="729.163" r="14.4" fill="#009af9" fill-rule="evenodd" fill-opacity="1" stroke="#000000" stroke-opacity="1" stroke-width="2.688"/>
<circle clip-path="url(#clip252)" cx="1797.9" cy="652.096" r="14.4" fill="#009af9" fill-rule="evenodd" fill-opacity="1" stroke="#000000" stroke-opacity="1" stroke-width="2.688"/>
<circle clip-path="url(#clip252)" cx="1828.22" cy="572.106" r="14.4" fill="#009af9" fill-rule="evenodd" fill-opacity="1" stroke="#000000" stroke-opacity="1" stroke-width="2.688"/>
<circle clip-path="url(#clip252)" cx="1858.55" cy="490.144" r="14.4" fill="#009af9" fill-rule="evenodd" fill-opacity="1" stroke="#000000" stroke-opacity="1" stroke-width="2.688"/>
<circle clip-path="url(#clip252)" cx="1888.87" cy="407.144" r="14.4" fill="#009af9" fill-rule="evenodd" fill-opacity="1" stroke="#000000" stroke-opacity="1" stroke-width="2.688"/>
<circle clip-path="url(#clip252)" cx="1919.2" cy="323.986" r="14.4" fill="#009af9" fill-rule="evenodd" fill-opacity="1" stroke="#000000" stroke-opacity="1" stroke-width="2.688"/>
<circle clip-path="url(#clip252)" cx="1949.52" cy="241.461" r="14.4" fill="#009af9" fill-rule="evenodd" fill-opacity="1" stroke="#000000" stroke-opacity="1" stroke-width="2.688"/>
<circle clip-path="url(#clip252)" cx="1979.85" cy="160.24" r="14.4" fill="#009af9" fill-rule="evenodd" fill-opacity="1" stroke="#000000" stroke-opacity="1" stroke-width="2.688"/>
<circle clip-path="url(#clip252)" cx="2010.17" cy="80.8479" r="14.4" fill="#009af9" fill-rule="evenodd" fill-opacity="1" stroke="#000000" stroke-opacity="1" stroke-width="2.688"/>
<path clip-path="url(#clip250)" d="M1755.17 1195 L2000.47 1195 L2000.47 1091.32 L1755.17 1091.32  Z" fill="#ffffff" fill-rule="evenodd" fill-opacity="1"/>
<polyline clip-path="url(#clip250)" style="stroke:#000000; stroke-linecap:round; stroke-linejoin:round; stroke-width:4; stroke-opacity:1; fill:none" points="1755.17,1195 2000.47,1195 2000.47,1091.32 1755.17,1091.32 1755.17,1195 "/>
<circle clip-path="url(#clip250)" cx="1840.89" cy="1143.16" r="20.48" fill="#009af9" fill-rule="evenodd" fill-opacity="1" stroke="#000000" stroke-opacity="1" stroke-width="3.82293"/>
<path clip-path="url(#clip250)" d="M1940.45 1162.85 Q1938.64 1167.48 1936.93 1168.89 Q1935.22 1170.3 1932.35 1170.3 L1928.94 1170.3 L1928.94 1166.74 L1931.44 1166.74 Q1933.2 1166.74 1934.18 1165.9 Q1935.15 1165.07 1936.33 1161.97 L1937.09 1160.02 L1926.61 1134.52 L1931.12 1134.52 L1939.22 1154.79 L1947.32 1134.52 L1951.84 1134.52 L1940.45 1162.85 Z" fill="#000000" fill-rule="nonzero" fill-opacity="1" /><path clip-path="url(#clip250)" d="M1959.13 1156.51 L1966.77 1156.51 L1966.77 1130.14 L1958.46 1131.81 L1958.46 1127.55 L1966.72 1125.88 L1971.4 1125.88 L1971.4 1156.51 L1979.04 1156.51 L1979.04 1160.44 L1959.13 1160.44 L1959.13 1156.51 Z" fill="#000000" fill-rule="nonzero" fill-opacity="1" /></svg>
