<?xml version="1.0" encoding="utf-8"?>
<svg xmlns="http://www.w3.org/2000/svg" xmlns:xlink="http://www.w3.org/1999/xlink" width="528" height="336" viewBox="0 0 2112 1344">
<defs>
  <clipPath id="clip310">
    <rect x="0" y="0" width="2112" height="1344"/>
  </clipPath>
</defs>
<path clip-path="url(#clip310)" d="M0 1344 L2112 1344 L2112 0 L0 0  Z" fill="#ffffff" fill-rule="evenodd" fill-opacity="1"/>
<defs>
  <clipPath id="clip311">
    <rect x="422" y="0" width="1479" height="1344"/>
  </clipPath>
</defs>
<path clip-path="url(#clip310)" d="M175.987 1234.58 L2064.76 1234.58 L2064.76 47.2441 L175.987 47.2441  Z" fill="#ffffff" fill-rule="evenodd" fill-opacity="1"/>
<defs>
  <clipPath id="clip312">
    <rect x="175" y="47" width="1890" height="1188"/>
  </clipPath>
</defs>
<polyline clip-path="url(#clip312)" style="stroke:#000000; stroke-linecap:round; stroke-linejoin:round; stroke-width:2; stroke-opacity:0.1; fill:none" points="407.628,1234.58 407.628,47.2441 "/>
<polyline clip-path="url(#clip312)" style="stroke:#000000; stroke-linecap:round; stroke-linejoin:round; stroke-width:2; stroke-opacity:0.1; fill:none" points="764,1234.58 764,47.2441 "/>
<polyline clip-path="url(#clip312)" style="stroke:#000000; stroke-linecap:round; stroke-linejoin:round; stroke-width:2; stroke-opacity:0.1; fill:none" points="1120.37,1234.58 1120.37,47.2441 "/>
<polyline clip-path="url(#clip312)" style="stroke:#000000; stroke-linecap:round; stroke-linejoin:round; stroke-width:2; stroke-opacity:0.1; fill:none" points="1476.74,1234.58 1476.74,47.2441 "/>
<polyline clip-path="url(#clip312)" style="stroke:#000000; stroke-linecap:round; stroke-linejoin:round; stroke-width:2; stroke-opacity:0.1; fill:none" points="1833.11,1234.58 1833.11,47.2441 "/>
<polyline clip-path="url(#clip310)" style="stroke:#000000; stroke-linecap:round; stroke-linejoin:round; stroke-width:4; stroke-opacity:1; fill:none" points="175.987,1234.58 2064.76,1234.58 "/>
<polyline clip-path="url(#clip310)" style="stroke:#000000; stroke-linecap:round; stroke-linejoin:round; stroke-width:4; stroke-opacity:1; fill:none" points="407.628,1234.58 407.628,1215.68 "/>
<polyline clip-path="url(#clip310)" style="stroke:#000000; stroke-linecap:round; stroke-linejoin:round; stroke-width:4; stroke-opacity:1; fill:none" points="764,1234.58 764,1215.68 "/>
<polyline clip-path="url(#clip310)" style="stroke:#000000; stroke-linecap:round; stroke-linejoin:round; stroke-width:4; stroke-opacity:1; fill:none" points="1120.37,1234.58 1120.37,1215.68 "/>
<polyline clip-path="url(#clip310)" style="stroke:#000000; stroke-linecap:round; stroke-linejoin:round; stroke-width:4; stroke-opacity:1; fill:none" points="1476.74,1234.58 1476.74,1215.68 "/>
<polyline clip-path="url(#clip310)" style="stroke:#000000; stroke-linecap:round; stroke-linejoin:round; stroke-width:4; stroke-opacity:1; fill:none" points="1833.11,1234.58 1833.11,1215.68 "/>
<path clip-path="url(#clip310)" d="M376.529 1277.85 L406.205 1277.85 L406.205 1281.78 L376.529 1281.78 L376.529 1277.85 Z" fill="#000000" fill-rule="nonzero" fill-opacity="1" /><path clip-path="url(#clip310)" d="M429.144 1264.19 L417.339 1282.64 L429.144 1282.64 L429.144 1264.19 M427.917 1260.11 L433.797 1260.11 L433.797 1282.64 L438.728 1282.64 L438.728 1286.53 L433.797 1286.53 L433.797 1294.67 L429.144 1294.67 L429.144 1286.53 L413.542 1286.53 L413.542 1282.01 L427.917 1260.11 Z" fill="#000000" fill-rule="nonzero" fill-opacity="1" /><path clip-path="url(#clip310)" d="M733.942 1277.85 L763.618 1277.85 L763.618 1281.78 L733.942 1281.78 L733.942 1277.85 Z" fill="#000000" fill-rule="nonzero" fill-opacity="1" /><path clip-path="url(#clip310)" d="M777.738 1290.74 L794.057 1290.74 L794.057 1294.67 L772.113 1294.67 L772.113 1290.74 Q774.775 1287.99 779.358 1283.36 Q783.965 1278.7 785.145 1277.36 Q787.391 1274.84 788.27 1273.1 Q789.173 1271.34 789.173 1269.65 Q789.173 1266.9 787.229 1265.16 Q785.307 1263.42 782.206 1263.42 Q780.007 1263.42 777.553 1264.19 Q775.122 1264.95 772.345 1266.5 L772.345 1261.78 Q775.169 1260.65 777.622 1260.07 Q780.076 1259.49 782.113 1259.49 Q787.483 1259.49 790.678 1262.17 Q793.872 1264.86 793.872 1269.35 Q793.872 1271.48 793.062 1273.4 Q792.275 1275.3 790.169 1277.89 Q789.59 1278.56 786.488 1281.78 Q783.386 1284.98 777.738 1290.74 Z" fill="#000000" fill-rule="nonzero" fill-opacity="1" /><path clip-path="url(#clip310)" d="M1120.37 1263.19 Q1116.76 1263.19 1114.93 1266.76 Q1113.13 1270.3 1113.13 1277.43 Q1113.13 1284.54 1114.93 1288.1 Q1116.76 1291.64 1120.37 1291.64 Q1124.01 1291.64 1125.81 1288.1 Q1127.64 1284.54 1127.64 1277.43 Q1127.64 1270.3 1125.81 1266.76 Q1124.01 1263.19 1120.37 1263.19 M1120.37 1259.49 Q1126.18 1259.49 1129.24 1264.1 Q1132.32 1268.68 1132.32 1277.43 Q1132.32 1286.16 1129.24 1290.76 Q1126.18 1295.35 1120.37 1295.35 Q1114.56 1295.35 1111.48 1290.76 Q1108.43 1286.16 1108.43 1277.43 Q1108.43 1268.68 1111.48 1264.1 Q1114.56 1259.49 1120.37 1259.49 Z" fill="#000000" fill-rule="nonzero" fill-opacity="1" /><path clip-path="url(#clip310)" d="M1471.4 1290.74 L1487.71 1290.74 L1487.71 1294.67 L1465.77 1294.67 L1465.77 1290.74 Q1468.43 1287.99 1473.02 1283.36 Q1477.62 1278.7 1478.8 1277.36 Q1481.05 1274.84 1481.93 1273.1 Q1482.83 1271.34 1482.83 1269.65 Q1482.83 1266.9 1480.89 1265.16 Q1478.97 1263.42 1475.86 1263.42 Q1473.66 1263.42 1471.21 1264.19 Q1468.78 1264.95 1466 1266.5 L1466 1261.78 Q1468.83 1260.65 1471.28 1260.07 Q1473.73 1259.49 1475.77 1259.49 Q1481.14 1259.49 1484.34 1262.17 Q1487.53 1264.86 1487.53 1269.35 Q1487.53 1271.48 1486.72 1273.4 Q1485.93 1275.3 1483.83 1277.89 Q1483.25 1278.56 1480.15 1281.78 Q1477.04 1284.98 1471.4 1290.74 Z" fill="#000000" fill-rule="nonzero" fill-opacity="1" /><path clip-path="url(#clip310)" d="M1836.12 1264.19 L1824.32 1282.64 L1836.12 1282.64 L1836.12 1264.19 M1834.9 1260.11 L1840.78 1260.11 L1840.78 1282.64 L1845.71 1282.64 L1845.71 1286.53 L1840.78 1286.53 L1840.78 1294.67 L1836.12 1294.67 L1836.12 1286.53 L1820.52 1286.53 L1820.52 1282.01 L1834.9 1260.11 Z" fill="#000000" fill-rule="nonzero" fill-opacity="1" /><polyline clip-path="url(#clip312)" style="stroke:#000000; stroke-linecap:round; stroke-linejoin:round; stroke-width:2; stroke-opacity:0.1; fill:none" points="175.987,1173.37 2064.76,1173.37 "/>
<polyline clip-path="url(#clip312)" style="stroke:#000000; stroke-linecap:round; stroke-linejoin:round; stroke-width:2; stroke-opacity:0.1; fill:none" points="175.987,876.27 2064.76,876.27 "/>
<polyline clip-path="url(#clip312)" style="stroke:#000000; stroke-linecap:round; stroke-linejoin:round; stroke-width:2; stroke-opacity:0.1; fill:none" points="175.987,579.171 2064.76,579.171 "/>
<polyline clip-path="url(#clip312)" style="stroke:#000000; stroke-linecap:round; stroke-linejoin:round; stroke-width:2; stroke-opacity:0.1; fill:none" points="175.987,282.073 2064.76,282.073 "/>
<polyline clip-path="url(#clip310)" style="stroke:#000000; stroke-linecap:round; stroke-linejoin:round; stroke-width:4; stroke-opacity:1; fill:none" points="175.987,1234.58 175.987,47.2441 "/>
<polyline clip-path="url(#clip310)" style="stroke:#000000; stroke-linecap:round; stroke-linejoin:round; stroke-width:4; stroke-opacity:1; fill:none" points="175.987,1173.37 194.884,1173.37 "/>
<polyline clip-path="url(#clip310)" style="stroke:#000000; stroke-linecap:round; stroke-linejoin:round; stroke-width:4; stroke-opacity:1; fill:none" points="175.987,876.27 194.884,876.27 "/>
<polyline clip-path="url(#clip310)" style="stroke:#000000; stroke-linecap:round; stroke-linejoin:round; stroke-width:4; stroke-opacity:1; fill:none" points="175.987,579.171 194.884,579.171 "/>
<polyline clip-path="url(#clip310)" style="stroke:#000000; stroke-linecap:round; stroke-linejoin:round; stroke-width:4; stroke-opacity:1; fill:none" points="175.987,282.073 194.884,282.073 "/>
<path clip-path="url(#clip310)" d="M52.4321 1173.82 L82.1079 1173.82 L82.1079 1177.75 L52.4321 1177.75 L52.4321 1173.82 Z" fill="#000000" fill-rule="nonzero" fill-opacity="1" /><path clip-path="url(#clip310)" d="M102.779 1171.5 Q99.6309 1171.5 97.7791 1173.66 Q95.9504 1175.81 95.9504 1179.56 Q95.9504 1183.29 97.7791 1185.46 Q99.6309 1187.62 102.779 1187.62 Q105.927 1187.62 107.756 1185.46 Q109.608 1183.29 109.608 1179.56 Q109.608 1175.81 107.756 1173.66 Q105.927 1171.5 102.779 1171.5 M112.061 1156.85 L112.061 1161.11 Q110.302 1160.28 108.497 1159.84 Q106.714 1159.4 104.955 1159.4 Q100.325 1159.4 97.8717 1162.52 Q95.4412 1165.65 95.0939 1171.97 Q96.4597 1169.95 98.5198 1168.89 Q100.58 1167.8 103.057 1167.8 Q108.265 1167.8 111.274 1170.97 Q114.307 1174.12 114.307 1179.56 Q114.307 1184.88 111.159 1188.1 Q108.011 1191.32 102.779 1191.32 Q96.7837 1191.32 93.6125 1186.74 Q90.4412 1182.13 90.4412 1173.4 Q90.4412 1165.21 94.33 1160.35 Q98.2189 1155.46 104.77 1155.46 Q106.529 1155.46 108.311 1155.81 Q110.117 1156.16 112.061 1156.85 Z" fill="#000000" fill-rule="nonzero" fill-opacity="1" /><path clip-path="url(#clip310)" d="M132.362 1159.17 Q128.751 1159.17 126.922 1162.73 Q125.117 1166.27 125.117 1173.4 Q125.117 1180.51 126.922 1184.07 Q128.751 1187.62 132.362 1187.62 Q135.996 1187.62 137.802 1184.07 Q139.631 1180.51 139.631 1173.4 Q139.631 1166.27 137.802 1162.73 Q135.996 1159.17 132.362 1159.17 M132.362 1155.46 Q138.172 1155.46 141.228 1160.07 Q144.307 1164.65 144.307 1173.4 Q144.307 1182.13 141.228 1186.74 Q138.172 1191.32 132.362 1191.32 Q126.552 1191.32 123.473 1186.74 Q120.418 1182.13 120.418 1173.4 Q120.418 1164.65 123.473 1160.07 Q126.552 1155.46 132.362 1155.46 Z" fill="#000000" fill-rule="nonzero" fill-opacity="1" /><path clip-path="url(#clip310)" d="M52.4321 876.721 L82.1079 876.721 L82.1079 880.656 L52.4321 880.656 L52.4321 876.721 Z" fill="#000000" fill-rule="nonzero" fill-opacity="1" /><path clip-path="url(#clip310)" d="M105.048 863.064 L93.2421 881.513 L105.048 881.513 L105.048 863.064 M103.821 858.99 L109.7 858.99 L109.7 881.513 L114.631 881.513 L114.631 885.402 L109.7 885.402 L109.7 893.55 L105.048 893.55 L105.048 885.402 L89.4458 885.402 L89.4458 880.888 L103.821 858.99 Z" fill="#000000" fill-rule="nonzero" fill-opacity="1" /><path clip-path="url(#clip310)" d="M132.362 862.068 Q128.751 862.068 126.922 865.633 Q125.117 869.175 125.117 876.305 Q125.117 883.411 126.922 886.976 Q128.751 890.517 132.362 890.517 Q135.996 890.517 137.802 886.976 Q139.631 883.411 139.631 876.305 Q139.631 869.175 137.802 865.633 Q135.996 862.068 132.362 862.068 M132.362 858.365 Q138.172 858.365 141.228 862.971 Q144.307 867.555 144.307 876.305 Q144.307 885.031 141.228 889.638 Q138.172 894.221 132.362 894.221 Q126.552 894.221 123.473 889.638 Q120.418 885.031 120.418 876.305 Q120.418 867.555 123.473 862.971 Q126.552 858.365 132.362 858.365 Z" fill="#000000" fill-rule="nonzero" fill-opacity="1" /><path clip-path="url(#clip310)" d="M52.4321 579.623 L82.1079 579.623 L82.1079 583.558 L52.4321 583.558 L52.4321 579.623 Z" fill="#000000" fill-rule="nonzero" fill-opacity="1" /><path clip-path="url(#clip310)" d="M96.2282 592.516 L112.548 592.516 L112.548 596.451 L90.6032 596.451 L90.6032 592.516 Q93.2652 589.762 97.8485 585.132 Q102.455 580.479 103.636 579.137 Q105.881 576.614 106.761 574.877 Q107.663 573.118 107.663 571.428 Q107.663 568.674 105.719 566.938 Q103.798 565.202 100.696 565.202 Q98.4967 565.202 96.043 565.965 Q93.6125 566.729 90.8347 568.28 L90.8347 563.558 Q93.6588 562.424 96.1124 561.845 Q98.5661 561.266 100.603 561.266 Q105.974 561.266 109.168 563.952 Q112.362 566.637 112.362 571.127 Q112.362 573.257 111.552 575.178 Q110.765 577.077 108.659 579.669 Q108.08 580.34 104.978 583.558 Q101.876 586.752 96.2282 592.516 Z" fill="#000000" fill-rule="nonzero" fill-opacity="1" /><path clip-path="url(#clip310)" d="M132.362 564.97 Q128.751 564.97 126.922 568.535 Q125.117 572.077 125.117 579.206 Q125.117 586.313 126.922 589.877 Q128.751 593.419 132.362 593.419 Q135.996 593.419 137.802 589.877 Q139.631 586.313 139.631 579.206 Q139.631 572.077 137.802 568.535 Q135.996 564.97 132.362 564.97 M132.362 561.266 Q138.172 561.266 141.228 565.873 Q144.307 570.456 144.307 579.206 Q144.307 587.933 141.228 592.539 Q138.172 597.123 132.362 597.123 Q126.552 597.123 123.473 592.539 Q120.418 587.933 120.418 579.206 Q120.418 570.456 123.473 565.873 Q126.552 561.266 132.362 561.266 Z" fill="#000000" fill-rule="nonzero" fill-opacity="1" /><path clip-path="url(#clip310)" d="M132.362 267.872 Q128.751 267.872 126.922 271.437 Q125.117 274.978 125.117 282.108 Q125.117 289.214 126.922 292.779 Q128.751 296.321 132.362 296.321 Q135.996 296.321 137.802 292.779 Q139.631 289.214 139.631 282.108 Q139.631 274.978 137.802 271.437 Q135.996 267.872 132.362 267.872 M132.362 264.168 Q138.172 264.168 141.228 268.775 Q144.307 273.358 144.307 282.108 Q144.307 290.835 141.228 295.441 Q138.172 300.024 132.362 300.024 Q126.552 300.024 123.473 295.441 Q120.418 290.835 120.418 282.108 Q120.418 273.358 123.473 268.775 Q126.552 264.168 132.362 264.168 Z" fill="#000000" fill-rule="nonzero" fill-opacity="1" /><circle clip-path="url(#clip312)" cx="229.442" cy="1200.97" r="14.4" fill="#009af9" fill-rule="evenodd" fill-opacity="1" stroke="#000000" stroke-opacity="1" stroke-width="2.688"/>
<circle clip-path="url(#clip312)" cx="247.261" cy="1156.1" r="14.4" fill="#009af9" fill-rule="evenodd" fill-opacity="1" stroke="#000000" stroke-opacity="1" stroke-width="2.688"/>
<circle clip-path="url(#clip312)" cx="265.08" cy="1101.75" r="14.4" fill="#009af9" fill-rule="evenodd" fill-opacity="1" stroke="#000000" stroke-opacity="1" stroke-width="2.688"/>
<circle clip-path="url(#clip312)" cx="282.898" cy="1061.28" r="14.4" fill="#009af9" fill-rule="evenodd" fill-opacity="1" stroke="#000000" stroke-opacity="1" stroke-width="2.688"/>
<circle clip-path="url(#clip312)" cx="300.717" cy="1031.24" r="14.4" fill="#009af9" fill-rule="evenodd" fill-opacity="1" stroke="#000000" stroke-opacity="1" stroke-width="2.688"/>
<circle clip-path="url(#clip312)" cx="318.535" cy="989.005" r="14.4" fill="#009af9" fill-rule="evenodd" fill-opacity="1" stroke="#000000" stroke-opacity="1" stroke-width="2.688"/>
<circle clip-path="url(#clip312)" cx="336.354" cy="951.428" r="14.4" fill="#009af9" fill-rule="evenodd" fill-opacity="1" stroke="#000000" stroke-opacity="1" stroke-width="2.688"/>
<circle clip-path="url(#clip312)" cx="354.172" cy="913.704" r="14.4" fill="#009af9" fill-rule="evenodd" fill-opacity="1" stroke="#000000" stroke-opacity="1" stroke-width="2.688"/>
<circle clip-path="url(#clip312)" cx="371.991" cy="888.719" r="14.4" fill="#009af9" fill-rule="evenodd" fill-opacity="1" stroke="#000000" stroke-opacity="1" stroke-width="2.688"/>
<circle clip-path="url(#clip312)" cx="389.81" cy="841.202" r="14.4" fill="#009af9" fill-rule="evenodd" fill-opacity="1" stroke="#000000" stroke-opacity="1" stroke-width="2.688"/>
<circle clip-path="url(#clip312)" cx="407.628" cy="814.924" r="14.4" fill="#009af9" fill-rule="evenodd" fill-opacity="1" stroke="#000000" stroke-opacity="1" stroke-width="2.688"/>
<circle clip-path="url(#clip312)" cx="425.447" cy="786.074" r="14.4" fill="#009af9" fill-rule="evenodd" fill-opacity="1" stroke="#000000" stroke-opacity="1" stroke-width="2.688"/>
<circle clip-path="url(#clip312)" cx="443.265" cy="759.124" r="14.4" fill="#009af9" fill-rule="evenodd" fill-opacity="1" stroke="#000000" stroke-opacity="1" stroke-width="2.688"/>
<circle clip-path="url(#clip312)" cx="461.084" cy="734.388" r="14.4" fill="#009af9" fill-rule="evenodd" fill-opacity="1" stroke="#000000" stroke-opacity="1" stroke-width="2.688"/>
<circle clip-path="url(#clip312)" cx="478.902" cy="696.407" r="14.4" fill="#009af9" fill-rule="evenodd" fill-opacity="1" stroke="#000000" stroke-opacity="1" stroke-width="2.688"/>
<circle clip-path="url(#clip312)" cx="496.721" cy="679.529" r="14.4" fill="#009af9" fill-rule="evenodd" fill-opacity="1" stroke="#000000" stroke-opacity="1" stroke-width="2.688"/>
<circle clip-path="url(#clip312)" cx="514.54" cy="648.141" r="14.4" fill="#009af9" fill-rule="evenodd" fill-opacity="1" stroke="#000000" stroke-opacity="1" stroke-width="2.688"/>
<circle clip-path="url(#clip312)" cx="532.358" cy="630.564" r="14.4" fill="#009af9" fill-rule="evenodd" fill-opacity="1" stroke="#000000" stroke-opacity="1" stroke-width="2.688"/>
<circle clip-path="url(#clip312)" cx="550.177" cy="604.601" r="14.4" fill="#009af9" fill-rule="evenodd" fill-opacity="1" stroke="#000000" stroke-opacity="1" stroke-width="2.688"/>
<circle clip-path="url(#clip312)" cx="567.995" cy="578.591" r="14.4" fill="#009af9" fill-rule="evenodd" fill-opacity="1" stroke="#000000" stroke-opacity="1" stroke-width="2.688"/>
<circle clip-path="url(#clip312)" cx="585.814" cy="553.246" r="14.4" fill="#009af9" fill-rule="evenodd" fill-opacity="1" stroke="#000000" stroke-opacity="1" stroke-width="2.688"/>
<circle clip-path="url(#clip312)" cx="603.633" cy="531.78" r="14.4" fill="#009af9" fill-rule="evenodd" fill-opacity="1" stroke="#000000" stroke-opacity="1" stroke-width="2.688"/>
<circle clip-path="url(#clip312)" cx="621.451" cy="521.024" r="14.4" fill="#009af9" fill-rule="evenodd" fill-opacity="1" stroke="#000000" stroke-opacity="1" stroke-width="2.688"/>
<circle clip-path="url(#clip312)" cx="639.27" cy="501.461" r="14.4" fill="#009af9" fill-rule="evenodd" fill-opacity="1" stroke="#000000" stroke-opacity="1" stroke-width="2.688"/>
<circle clip-path="url(#clip312)" cx="657.088" cy="485.083" r="14.4" fill="#009af9" fill-rule="evenodd" fill-opacity="1" stroke="#000000" stroke-opacity="1" stroke-width="2.688"/>
<circle clip-path="url(#clip312)" cx="674.907" cy="455.389" r="14.4" fill="#009af9" fill-rule="evenodd" fill-opacity="1" stroke="#000000" stroke-opacity="1" stroke-width="2.688"/>
<circle clip-path="url(#clip312)" cx="692.725" cy="438.467" r="14.4" fill="#009af9" fill-rule="evenodd" fill-opacity="1" stroke="#000000" stroke-opacity="1" stroke-width="2.688"/>
<circle clip-path="url(#clip312)" cx="710.544" cy="421.168" r="14.4" fill="#009af9" fill-rule="evenodd" fill-opacity="1" stroke="#000000" stroke-opacity="1" stroke-width="2.688"/>
<circle clip-path="url(#clip312)" cx="728.363" cy="404.081" r="14.4" fill="#009af9" fill-rule="evenodd" fill-opacity="1" stroke="#000000" stroke-opacity="1" stroke-width="2.688"/>
<circle clip-path="url(#clip312)" cx="746.181" cy="394.518" r="14.4" fill="#009af9" fill-rule="evenodd" fill-opacity="1" stroke="#000000" stroke-opacity="1" stroke-width="2.688"/>
<circle clip-path="url(#clip312)" cx="764" cy="381.545" r="14.4" fill="#009af9" fill-rule="evenodd" fill-opacity="1" stroke="#000000" stroke-opacity="1" stroke-width="2.688"/>
<circle clip-path="url(#clip312)" cx="781.818" cy="362.775" r="14.4" fill="#009af9" fill-rule="evenodd" fill-opacity="1" stroke="#000000" stroke-opacity="1" stroke-width="2.688"/>
<circle clip-path="url(#clip312)" cx="799.637" cy="353.371" r="14.4" fill="#009af9" fill-rule="evenodd" fill-opacity="1" stroke="#000000" stroke-opacity="1" stroke-width="2.688"/>
<circle clip-path="url(#clip312)" cx="817.455" cy="345.735" r="14.4" fill="#009af9" fill-rule="evenodd" fill-opacity="1" stroke="#000000" stroke-opacity="1" stroke-width="2.688"/>
<circle clip-path="url(#clip312)" cx="835.274" cy="336.364" r="14.4" fill="#009af9" fill-rule="evenodd" fill-opacity="1" stroke="#000000" stroke-opacity="1" stroke-width="2.688"/>
<circle clip-path="url(#clip312)" cx="853.093" cy="319.842" r="14.4" fill="#009af9" fill-rule="evenodd" fill-opacity="1" stroke="#000000" stroke-opacity="1" stroke-width="2.688"/>
<circle clip-path="url(#clip312)" cx="870.911" cy="314.868" r="14.4" fill="#009af9" fill-rule="evenodd" fill-opacity="1" stroke="#000000" stroke-opacity="1" stroke-width="2.688"/>
<circle clip-path="url(#clip312)" cx="888.73" cy="308.776" r="14.4" fill="#009af9" fill-rule="evenodd" fill-opacity="1" stroke="#000000" stroke-opacity="1" stroke-width="2.688"/>
<circle clip-path="url(#clip312)" cx="906.548" cy="300.35" r="14.4" fill="#009af9" fill-rule="evenodd" fill-opacity="1" stroke="#000000" stroke-opacity="1" stroke-width="2.688"/>
<circle clip-path="url(#clip312)" cx="924.367" cy="279.681" r="14.4" fill="#009af9" fill-rule="evenodd" fill-opacity="1" stroke="#000000" stroke-opacity="1" stroke-width="2.688"/>
<circle clip-path="url(#clip312)" cx="942.185" cy="276.147" r="14.4" fill="#009af9" fill-rule="evenodd" fill-opacity="1" stroke="#000000" stroke-opacity="1" stroke-width="2.688"/>
<circle clip-path="url(#clip312)" cx="960.004" cy="266.101" r="14.4" fill="#009af9" fill-rule="evenodd" fill-opacity="1" stroke="#000000" stroke-opacity="1" stroke-width="2.688"/>
<circle clip-path="url(#clip312)" cx="977.823" cy="263.159" r="14.4" fill="#009af9" fill-rule="evenodd" fill-opacity="1" stroke="#000000" stroke-opacity="1" stroke-width="2.688"/>
<circle clip-path="url(#clip312)" cx="995.641" cy="253.793" r="14.4" fill="#009af9" fill-rule="evenodd" fill-opacity="1" stroke="#000000" stroke-opacity="1" stroke-width="2.688"/>
<circle clip-path="url(#clip312)" cx="1013.46" cy="258.342" r="14.4" fill="#009af9" fill-rule="evenodd" fill-opacity="1" stroke="#000000" stroke-opacity="1" stroke-width="2.688"/>
<circle clip-path="url(#clip312)" cx="1031.28" cy="251.38" r="14.4" fill="#009af9" fill-rule="evenodd" fill-opacity="1" stroke="#000000" stroke-opacity="1" stroke-width="2.688"/>
<circle clip-path="url(#clip312)" cx="1049.1" cy="250.803" r="14.4" fill="#009af9" fill-rule="evenodd" fill-opacity="1" stroke="#000000" stroke-opacity="1" stroke-width="2.688"/>
<circle clip-path="url(#clip312)" cx="1066.92" cy="248.473" r="14.4" fill="#009af9" fill-rule="evenodd" fill-opacity="1" stroke="#000000" stroke-opacity="1" stroke-width="2.688"/>
<circle clip-path="url(#clip312)" cx="1084.73" cy="252.173" r="14.4" fill="#009af9" fill-rule="evenodd" fill-opacity="1" stroke="#000000" stroke-opacity="1" stroke-width="2.688"/>
<circle clip-path="url(#clip312)" cx="1102.55" cy="240.611" r="14.4" fill="#009af9" fill-rule="evenodd" fill-opacity="1" stroke="#000000" stroke-opacity="1" stroke-width="2.688"/>
<circle clip-path="url(#clip312)" cx="1120.37" cy="246.52" r="14.4" fill="#009af9" fill-rule="evenodd" fill-opacity="1" stroke="#000000" stroke-opacity="1" stroke-width="2.688"/>
<circle clip-path="url(#clip312)" cx="1138.19" cy="248.641" r="14.4" fill="#009af9" fill-rule="evenodd" fill-opacity="1" stroke="#000000" stroke-opacity="1" stroke-width="2.688"/>
<circle clip-path="url(#clip312)" cx="1156.01" cy="243.816" r="14.4" fill="#009af9" fill-rule="evenodd" fill-opacity="1" stroke="#000000" stroke-opacity="1" stroke-width="2.688"/>
<circle clip-path="url(#clip312)" cx="1173.83" cy="254.118" r="14.4" fill="#009af9" fill-rule="evenodd" fill-opacity="1" stroke="#000000" stroke-opacity="1" stroke-width="2.688"/>
<circle clip-path="url(#clip312)" cx="1191.65" cy="246.799" r="14.4" fill="#009af9" fill-rule="evenodd" fill-opacity="1" stroke="#000000" stroke-opacity="1" stroke-width="2.688"/>
<circle clip-path="url(#clip312)" cx="1209.46" cy="255.825" r="14.4" fill="#009af9" fill-rule="evenodd" fill-opacity="1" stroke="#000000" stroke-opacity="1" stroke-width="2.688"/>
<circle clip-path="url(#clip312)" cx="1227.28" cy="256.573" r="14.4" fill="#009af9" fill-rule="evenodd" fill-opacity="1" stroke="#000000" stroke-opacity="1" stroke-width="2.688"/>
<circle clip-path="url(#clip312)" cx="1245.1" cy="260.162" r="14.4" fill="#009af9" fill-rule="evenodd" fill-opacity="1" stroke="#000000" stroke-opacity="1" stroke-width="2.688"/>
<circle clip-path="url(#clip312)" cx="1262.92" cy="263.828" r="14.4" fill="#009af9" fill-rule="evenodd" fill-opacity="1" stroke="#000000" stroke-opacity="1" stroke-width="2.688"/>
<circle clip-path="url(#clip312)" cx="1280.74" cy="271.248" r="14.4" fill="#009af9" fill-rule="evenodd" fill-opacity="1" stroke="#000000" stroke-opacity="1" stroke-width="2.688"/>
<circle clip-path="url(#clip312)" cx="1298.56" cy="264.21" r="14.4" fill="#009af9" fill-rule="evenodd" fill-opacity="1" stroke="#000000" stroke-opacity="1" stroke-width="2.688"/>
<circle clip-path="url(#clip312)" cx="1316.38" cy="276.494" r="14.4" fill="#009af9" fill-rule="evenodd" fill-opacity="1" stroke="#000000" stroke-opacity="1" stroke-width="2.688"/>
<circle clip-path="url(#clip312)" cx="1334.19" cy="277.995" r="14.4" fill="#009af9" fill-rule="evenodd" fill-opacity="1" stroke="#000000" stroke-opacity="1" stroke-width="2.688"/>
<circle clip-path="url(#clip312)" cx="1352.01" cy="274.877" r="14.4" fill="#009af9" fill-rule="evenodd" fill-opacity="1" stroke="#000000" stroke-opacity="1" stroke-width="2.688"/>
<circle clip-path="url(#clip312)" cx="1369.83" cy="284.38" r="14.4" fill="#009af9" fill-rule="evenodd" fill-opacity="1" stroke="#000000" stroke-opacity="1" stroke-width="2.688"/>
<circle clip-path="url(#clip312)" cx="1387.65" cy="294.925" r="14.4" fill="#009af9" fill-rule="evenodd" fill-opacity="1" stroke="#000000" stroke-opacity="1" stroke-width="2.688"/>
<circle clip-path="url(#clip312)" cx="1405.47" cy="288.948" r="14.4" fill="#009af9" fill-rule="evenodd" fill-opacity="1" stroke="#000000" stroke-opacity="1" stroke-width="2.688"/>
<circle clip-path="url(#clip312)" cx="1423.29" cy="299.025" r="14.4" fill="#009af9" fill-rule="evenodd" fill-opacity="1" stroke="#000000" stroke-opacity="1" stroke-width="2.688"/>
<circle clip-path="url(#clip312)" cx="1441.11" cy="305.064" r="14.4" fill="#009af9" fill-rule="evenodd" fill-opacity="1" stroke="#000000" stroke-opacity="1" stroke-width="2.688"/>
<circle clip-path="url(#clip312)" cx="1458.92" cy="310.721" r="14.4" fill="#009af9" fill-rule="evenodd" fill-opacity="1" stroke="#000000" stroke-opacity="1" stroke-width="2.688"/>
<circle clip-path="url(#clip312)" cx="1476.74" cy="309.378" r="14.4" fill="#009af9" fill-rule="evenodd" fill-opacity="1" stroke="#000000" stroke-opacity="1" stroke-width="2.688"/>
<circle clip-path="url(#clip312)" cx="1494.56" cy="309.48" r="14.4" fill="#009af9" fill-rule="evenodd" fill-opacity="1" stroke="#000000" stroke-opacity="1" stroke-width="2.688"/>
<circle clip-path="url(#clip312)" cx="1512.38" cy="309.677" r="14.4" fill="#009af9" fill-rule="evenodd" fill-opacity="1" stroke="#000000" stroke-opacity="1" stroke-width="2.688"/>
<circle clip-path="url(#clip312)" cx="1530.2" cy="314.927" r="14.4" fill="#009af9" fill-rule="evenodd" fill-opacity="1" stroke="#000000" stroke-opacity="1" stroke-width="2.688"/>
<circle clip-path="url(#clip312)" cx="1548.02" cy="317.557" r="14.4" fill="#009af9" fill-rule="evenodd" fill-opacity="1" stroke="#000000" stroke-opacity="1" stroke-width="2.688"/>
<circle clip-path="url(#clip312)" cx="1565.84" cy="323.413" r="14.4" fill="#009af9" fill-rule="evenodd" fill-opacity="1" stroke="#000000" stroke-opacity="1" stroke-width="2.688"/>
<circle clip-path="url(#clip312)" cx="1583.65" cy="317.502" r="14.4" fill="#009af9" fill-rule="evenodd" fill-opacity="1" stroke="#000000" stroke-opacity="1" stroke-width="2.688"/>
<circle clip-path="url(#clip312)" cx="1601.47" cy="326.275" r="14.4" fill="#009af9" fill-rule="evenodd" fill-opacity="1" stroke="#000000" stroke-opacity="1" stroke-width="2.688"/>
<circle clip-path="url(#clip312)" cx="1619.29" cy="321.769" r="14.4" fill="#009af9" fill-rule="evenodd" fill-opacity="1" stroke="#000000" stroke-opacity="1" stroke-width="2.688"/>
<circle clip-path="url(#clip312)" cx="1637.11" cy="324.32" r="14.4" fill="#009af9" fill-rule="evenodd" fill-opacity="1" stroke="#000000" stroke-opacity="1" stroke-width="2.688"/>
<circle clip-path="url(#clip312)" cx="1654.93" cy="318.121" r="14.4" fill="#009af9" fill-rule="evenodd" fill-opacity="1" stroke="#000000" stroke-opacity="1" stroke-width="2.688"/>
<circle clip-path="url(#clip312)" cx="1672.75" cy="318.65" r="14.4" fill="#009af9" fill-rule="evenodd" fill-opacity="1" stroke="#000000" stroke-opacity="1" stroke-width="2.688"/>
<circle clip-path="url(#clip312)" cx="1690.57" cy="308.957" r="14.4" fill="#009af9" fill-rule="evenodd" fill-opacity="1" stroke="#000000" stroke-opacity="1" stroke-width="2.688"/>
<circle clip-path="url(#clip312)" cx="1708.38" cy="307.756" r="14.4" fill="#009af9" fill-rule="evenodd" fill-opacity="1" stroke="#000000" stroke-opacity="1" stroke-width="2.688"/>
<circle clip-path="url(#clip312)" cx="1726.2" cy="297.243" r="14.4" fill="#009af9" fill-rule="evenodd" fill-opacity="1" stroke="#000000" stroke-opacity="1" stroke-width="2.688"/>
<circle clip-path="url(#clip312)" cx="1744.02" cy="299.419" r="14.4" fill="#009af9" fill-rule="evenodd" fill-opacity="1" stroke="#000000" stroke-opacity="1" stroke-width="2.688"/>
<circle clip-path="url(#clip312)" cx="1761.84" cy="282.812" r="14.4" fill="#009af9" fill-rule="evenodd" fill-opacity="1" stroke="#000000" stroke-opacity="1" stroke-width="2.688"/>
<circle clip-path="url(#clip312)" cx="1779.66" cy="277.557" r="14.4" fill="#009af9" fill-rule="evenodd" fill-opacity="1" stroke="#000000" stroke-opacity="1" stroke-width="2.688"/>
<circle clip-path="url(#clip312)" cx="1797.48" cy="263.556" r="14.4" fill="#009af9" fill-rule="evenodd" fill-opacity="1" stroke="#000000" stroke-opacity="1" stroke-width="2.688"/>
<circle clip-path="url(#clip312)" cx="1815.3" cy="250.884" r="14.4" fill="#009af9" fill-rule="evenodd" fill-opacity="1" stroke="#000000" stroke-opacity="1" stroke-width="2.688"/>
<circle clip-path="url(#clip312)" cx="1833.11" cy="245.457" r="14.4" fill="#009af9" fill-rule="evenodd" fill-opacity="1" stroke="#000000" stroke-opacity="1" stroke-width="2.688"/>
<circle clip-path="url(#clip312)" cx="1850.93" cy="237.484" r="14.4" fill="#009af9" fill-rule="evenodd" fill-opacity="1" stroke="#000000" stroke-opacity="1" stroke-width="2.688"/>
<circle clip-path="url(#clip312)" cx="1868.75" cy="222.069" r="14.4" fill="#009af9" fill-rule="evenodd" fill-opacity="1" stroke="#000000" stroke-opacity="1" stroke-width="2.688"/>
<circle clip-path="url(#clip312)" cx="1886.57" cy="213.639" r="14.4" fill="#009af9" fill-rule="evenodd" fill-opacity="1" stroke="#000000" stroke-opacity="1" stroke-width="2.688"/>
<circle clip-path="url(#clip312)" cx="1904.39" cy="197.06" r="14.4" fill="#009af9" fill-rule="evenodd" fill-opacity="1" stroke="#000000" stroke-opacity="1" stroke-width="2.688"/>
<circle clip-path="url(#clip312)" cx="1922.21" cy="173.444" r="14.4" fill="#009af9" fill-rule="evenodd" fill-opacity="1" stroke="#000000" stroke-opacity="1" stroke-width="2.688"/>
<circle clip-path="url(#clip312)" cx="1940.03" cy="153.183" r="14.4" fill="#009af9" fill-rule="evenodd" fill-opacity="1" stroke="#000000" stroke-opacity="1" stroke-width="2.688"/>
<circle clip-path="url(#clip312)" cx="1957.84" cy="138.688" r="14.4" fill="#009af9" fill-rule="evenodd" fill-opacity="1" stroke="#000000" stroke-opacity="1" stroke-width="2.688"/>
<circle clip-path="url(#clip312)" cx="1975.66" cy="120.37" r="14.4" fill="#009af9" fill-rule="evenodd" fill-opacity="1" stroke="#000000" stroke-opacity="1" stroke-width="2.688"/>
<circle clip-path="url(#clip312)" cx="1993.48" cy="103.861" r="14.4" fill="#009af9" fill-rule="evenodd" fill-opacity="1" stroke="#000000" stroke-opacity="1" stroke-width="2.688"/>
<circle clip-path="url(#clip312)" cx="2011.3" cy="80.8479" r="14.4" fill="#009af9" fill-rule="evenodd" fill-opacity="1" stroke="#000000" stroke-opacity="1" stroke-width="2.688"/>
<path clip-path="url(#clip310)" d="M238.946 190.502 L480.253 190.502 L480.253 86.8219 L238.946 86.8219  Z" fill="#ffffff" fill-rule="evenodd" fill-opacity="1"/>
<polyline clip-path="url(#clip310)" style="stroke:#000000; stroke-linecap:round; stroke-linejoin:round; stroke-width:4; stroke-opacity:1; fill:none" points="238.946,190.502 480.253,190.502 480.253,86.8219 238.946,86.8219 238.946,190.502 "/>
<circle clip-path="url(#clip310)" cx="322.891" cy="138.662" r="20.48" fill="#009af9" fill-rule="evenodd" fill-opacity="1" stroke="#000000" stroke-opacity="1" stroke-width="3.82293"/>
<path clip-path="url(#clip310)" d="M420.679 158.349 Q418.873 162.979 417.16 164.391 Q415.447 165.803 412.577 165.803 L409.174 165.803 L409.174 162.238 L411.674 162.238 Q413.433 162.238 414.406 161.405 Q415.378 160.572 416.558 157.47 L417.322 155.525 L406.836 130.016 L411.35 130.016 L419.452 150.294 L427.554 130.016 L432.068 130.016 L420.679 158.349 Z" fill="#000000" fill-rule="nonzero" fill-opacity="1" /><path clip-path="url(#clip310)" d="M439.359 152.007 L446.998 152.007 L446.998 125.641 L438.688 127.308 L438.688 123.049 L446.952 121.382 L451.628 121.382 L451.628 152.007 L459.266 152.007 L459.266 155.942 L439.359 155.942 L439.359 152.007 Z" fill="#000000" fill-rule="nonzero" fill-opacity="1" /></svg>
