<?xml version="1.0" encoding="utf-8"?>
<svg xmlns="http://www.w3.org/2000/svg" xmlns:xlink="http://www.w3.org/1999/xlink" width="528" height="336" viewBox="0 0 2112 1344">
<defs>
  <clipPath id="clip790">
    <rect x="0" y="0" width="2112" height="1344"/>
  </clipPath>
</defs>
<path clip-path="url(#clip790)" d="M0 1344 L2112 1344 L2112 0 L0 0  Z" fill="#ffffff" fill-rule="evenodd" fill-opacity="1"/>
<defs>
  <clipPath id="clip791">
    <rect x="422" y="0" width="1479" height="1344"/>
  </clipPath>
</defs>
<path clip-path="url(#clip790)" d="M175.987 1234.58 L2064.76 1234.58 L2064.76 47.2441 L175.987 47.2441  Z" fill="#ffffff" fill-rule="evenodd" fill-opacity="1"/>
<defs>
  <clipPath id="clip792">
    <rect x="175" y="47" width="1890" height="1188"/>
  </clipPath>
</defs>
<polyline clip-path="url(#clip792)" style="stroke:#000000; stroke-linecap:round; stroke-linejoin:round; stroke-width:2; stroke-opacity:0.1; fill:none" points="407.628,1234.58 407.628,47.2441 "/>
<polyline clip-path="url(#clip792)" style="stroke:#000000; stroke-linecap:round; stroke-linejoin:round; stroke-width:2; stroke-opacity:0.1; fill:none" points="764,1234.58 764,47.2441 "/>
<polyline clip-path="url(#clip792)" style="stroke:#000000; stroke-linecap:round; stroke-linejoin:round; stroke-width:2; stroke-opacity:0.1; fill:none" points="1120.37,1234.58 1120.37,47.2441 "/>
<polyline clip-path="url(#clip792)" style="stroke:#000000; stroke-linecap:round; stroke-linejoin:round; stroke-width:2; stroke-opacity:0.1; fill:none" points="1476.74,1234.58 1476.74,47.2441 "/>
<polyline clip-path="url(#clip792)" style="stroke:#000000; stroke-linecap:round; stroke-linejoin:round; stroke-width:2; stroke-opacity:0.1; fill:none" points="1833.11,1234.58 1833.11,47.2441 "/>
<polyline clip-path="url(#clip790)" style="stroke:#000000; stroke-linecap:round; stroke-linejoin:round; stroke-width:4; stroke-opacity:1; fill:none" points="175.987,1234.58 2064.76,1234.58 "/>
<polyline clip-path="url(#clip790)" style="stroke:#000000; stroke-linecap:round; stroke-linejoin:round; stroke-width:4; stroke-opacity:1; fill:none" points="407.628,1234.58 407.628,1215.68 "/>
<polyline clip-path="url(#clip790)" style="stroke:#000000; stroke-linecap:round; stroke-linejoin:round; stroke-width:4; stroke-opacity:1; fill:none" points="764,1234.58 764,1215.68 "/>
<polyline clip-path="url(#clip790)" style="stroke:#000000; stroke-linecap:round; stroke-linejoin:round; stroke-width:4; stroke-opacity:1; fill:none" points="1120.37,1234.58 1120.37,1215.68 "/>
<polyline clip-path="url(#clip790)" style="stroke:#000000; stroke-linecap:round; stroke-linejoin:round; stroke-width:4; stroke-opacity:1; fill:none" points="1476.74,1234.58 1476.74,1215.68 "/>
<polyline clip-path="url(#clip790)" style="stroke:#000000; stroke-linecap:round; stroke-linejoin:round; stroke-width:4; stroke-opacity:1; fill:none" points="1833.11,1234.58 1833.11,1215.68 "/>
<path clip-path="url(#clip790)" d="M376.529 1277.85 L406.205 1277.85 L406.205 1281.78 L376.529 1281.78 L376.529 1277.85 Z" fill="#000000" fill-rule="nonzero" fill-opacity="1" /><path clip-path="url(#clip790)" d="M429.144 1264.19 L417.339 1282.64 L429.144 1282.64 L429.144 1264.19 M427.917 1260.11 L433.797 1260.11 L433.797 1282.64 L438.728 1282.64 L438.728 1286.53 L433.797 1286.53 L433.797 1294.67 L429.144 1294.67 L429.144 1286.53 L413.542 1286.53 L413.542 1282.01 L427.917 1260.11 Z" fill="#000000" fill-rule="nonzero" fill-opacity="1" /><path clip-path="url(#clip790)" d="M733.942 1277.85 L763.618 1277.85 L763.618 1281.78 L733.942 1281.78 L733.942 1277.85 Z" fill="#000000" fill-rule="nonzero" fill-opacity="1" /><path clip-path="url(#clip790)" d="M777.738 1290.74 L794.057 1290.74 L794.057 1294.67 L772.113 1294.67 L772.113 1290.74 Q774.775 1287.99 779.358 1283.36 Q783.965 1278.7 785.145 1277.36 Q787.391 1274.84 788.27 1273.1 Q789.173 1271.34 789.173 1269.65 Q789.173 1266.9 787.229 1265.16 Q785.307 1263.42 782.206 1263.42 Q780.007 1263.42 777.553 1264.19 Q775.122 1264.95 772.345 1266.5 L772.345 1261.78 Q775.169 1260.65 777.622 1260.07 Q780.076 1259.49 782.113 1259.49 Q787.483 1259.49 790.678 1262.17 Q793.872 1264.86 793.872 1269.35 Q793.872 1271.48 793.062 1273.4 Q792.275 1275.3 790.169 1277.89 Q789.59 1278.56 786.488 1281.78 Q783.386 1284.98 777.738 1290.74 Z" fill="#000000" fill-rule="nonzero" fill-opacity="1" /><path clip-path="url(#clip790)" d="M1120.37 1263.19 Q1116.76 1263.19 1114.93 1266.76 Q1113.13 1270.3 1113.13 1277.43 Q1113.13 1284.54 1114.93 1288.1 Q1116.76 1291.64 1120.37 1291.64 Q1124.01 1291.64 1125.81 1288.1 Q1127.64 1284.54 1127.64 1277.43 Q1127.64 1270.3 1125.81 1266.76 Q1124.01 1263.19 1120.37 1263.19 M1120.37 1259.49 Q1126.18 1259.49 1129.24 1264.1 Q1132.32 1268.68 1132.32 1277.43 Q1132.32 1286.16 1129.24 1290.76 Q1126.18 1295.35 1120.37 1295.35 Q1114.56 1295.35 1111.48 1290.76 Q1108.43 1286.16 1108.43 1277.43 Q1108.43 1268.68 1111.48 1264.1 Q1114.56 1259.49 1120.37 1259.49 Z" fill="#000000" fill-rule="nonzero" fill-opacity="1" /><path clip-path="url(#clip790)" d="M1471.4 1290.74 L1487.71 1290.74 L1487.71 1294.67 L1465.77 1294.67 L1465.77 1290.74 Q1468.43 1287.99 1473.02 1283.36 Q1477.62 1278.7 1478.8 1277.36 Q1481.05 1274.84 1481.93 1273.1 Q1482.83 1271.34 1482.83 1269.65 Q1482.83 1266.9 1480.89 1265.16 Q1478.97 1263.42 1475.86 1263.42 Q1473.66 1263.42 1471.21 1264.19 Q1468.78 1264.95 1466 1266.5 L1466 1261.78 Q1468.83 1260.65 1471.28 1260.07 Q1473.73 1259.49 1475.77 1259.49 Q1481.14 1259.49 1484.34 1262.17 Q1487.53 1264.86 1487.53 1269.35 Q1487.53 1271.48 1486.72 1273.4 Q1485.93 1275.3 1483.83 1277.89 Q1483.25 1278.56 1480.15 1281.78 Q1477.04 1284.98 1471.4 1290.74 Z" fill="#000000" fill-rule="nonzero" fill-opacity="1" /><path clip-path="url(#clip790)" d="M1836.12 1264.19 L1824.32 1282.64 L1836.12 1282.64 L1836.12 1264.19 M1834.9 1260.11 L1840.78 1260.11 L1840.78 1282.64 L1845.71 1282.64 L1845.71 1286.53 L1840.78 1286.53 L1840.78 1294.67 L1836.12 1294.67 L1836.12 1286.53 L1820.52 1286.53 L1820.52 1282.01 L1834.9 1260.11 Z" fill="#000000" fill-rule="nonzero" fill-opacity="1" /><polyline clip-path="url(#clip792)" style="stroke:#000000; stroke-linecap:round; stroke-linejoin:round; stroke-width:2; stroke-opacity:0.1; fill:none" points="175.987,1181.28 2064.76,1181.28 "/>
<polyline clip-path="url(#clip792)" style="stroke:#000000; stroke-linecap:round; stroke-linejoin:round; stroke-width:2; stroke-opacity:0.1; fill:none" points="175.987,883.364 2064.76,883.364 "/>
<polyline clip-path="url(#clip792)" style="stroke:#000000; stroke-linecap:round; stroke-linejoin:round; stroke-width:2; stroke-opacity:0.1; fill:none" points="175.987,585.444 2064.76,585.444 "/>
<polyline clip-path="url(#clip792)" style="stroke:#000000; stroke-linecap:round; stroke-linejoin:round; stroke-width:2; stroke-opacity:0.1; fill:none" points="175.987,287.523 2064.76,287.523 "/>
<polyline clip-path="url(#clip790)" style="stroke:#000000; stroke-linecap:round; stroke-linejoin:round; stroke-width:4; stroke-opacity:1; fill:none" points="175.987,1234.58 175.987,47.2441 "/>
<polyline clip-path="url(#clip790)" style="stroke:#000000; stroke-linecap:round; stroke-linejoin:round; stroke-width:4; stroke-opacity:1; fill:none" points="175.987,1181.28 194.884,1181.28 "/>
<polyline clip-path="url(#clip790)" style="stroke:#000000; stroke-linecap:round; stroke-linejoin:round; stroke-width:4; stroke-opacity:1; fill:none" points="175.987,883.364 194.884,883.364 "/>
<polyline clip-path="url(#clip790)" style="stroke:#000000; stroke-linecap:round; stroke-linejoin:round; stroke-width:4; stroke-opacity:1; fill:none" points="175.987,585.444 194.884,585.444 "/>
<polyline clip-path="url(#clip790)" style="stroke:#000000; stroke-linecap:round; stroke-linejoin:round; stroke-width:4; stroke-opacity:1; fill:none" points="175.987,287.523 194.884,287.523 "/>
<path clip-path="url(#clip790)" d="M52.4321 1181.74 L82.1079 1181.74 L82.1079 1185.67 L52.4321 1185.67 L52.4321 1181.74 Z" fill="#000000" fill-rule="nonzero" fill-opacity="1" /><path clip-path="url(#clip790)" d="M102.779 1179.42 Q99.6309 1179.42 97.7791 1181.57 Q95.9504 1183.73 95.9504 1187.48 Q95.9504 1191.2 97.7791 1193.38 Q99.6309 1195.53 102.779 1195.53 Q105.927 1195.53 107.756 1193.38 Q109.608 1191.2 109.608 1187.48 Q109.608 1183.73 107.756 1181.57 Q105.927 1179.42 102.779 1179.42 M112.061 1164.77 L112.061 1169.03 Q110.302 1168.19 108.497 1167.75 Q106.714 1167.31 104.955 1167.31 Q100.325 1167.31 97.8717 1170.44 Q95.4412 1173.56 95.0939 1179.88 Q96.4597 1177.87 98.5198 1176.81 Q100.58 1175.72 103.057 1175.72 Q108.265 1175.72 111.274 1178.89 Q114.307 1182.04 114.307 1187.48 Q114.307 1192.8 111.159 1196.02 Q108.011 1199.24 102.779 1199.24 Q96.7837 1199.24 93.6125 1194.65 Q90.4412 1190.05 90.4412 1181.32 Q90.4412 1173.12 94.33 1168.26 Q98.2189 1163.38 104.77 1163.38 Q106.529 1163.38 108.311 1163.73 Q110.117 1164.07 112.061 1164.77 Z" fill="#000000" fill-rule="nonzero" fill-opacity="1" /><path clip-path="url(#clip790)" d="M132.362 1167.08 Q128.751 1167.08 126.922 1170.65 Q125.117 1174.19 125.117 1181.32 Q125.117 1188.43 126.922 1191.99 Q128.751 1195.53 132.362 1195.53 Q135.996 1195.53 137.802 1191.99 Q139.631 1188.43 139.631 1181.32 Q139.631 1174.19 137.802 1170.65 Q135.996 1167.08 132.362 1167.08 M132.362 1163.38 Q138.172 1163.38 141.228 1167.99 Q144.307 1172.57 144.307 1181.32 Q144.307 1190.05 141.228 1194.65 Q138.172 1199.24 132.362 1199.24 Q126.552 1199.24 123.473 1194.65 Q120.418 1190.05 120.418 1181.32 Q120.418 1172.57 123.473 1167.99 Q126.552 1163.38 132.362 1163.38 Z" fill="#000000" fill-rule="nonzero" fill-opacity="1" /><path clip-path="url(#clip790)" d="M52.4321 883.815 L82.1079 883.815 L82.1079 887.751 L52.4321 887.751 L52.4321 883.815 Z" fill="#000000" fill-rule="nonzero" fill-opacity="1" /><path clip-path="url(#clip790)" d="M105.048 870.158 L93.2421 888.607 L105.048 888.607 L105.048 870.158 M103.821 866.084 L109.7 866.084 L109.7 888.607 L114.631 888.607 L114.631 892.496 L109.7 892.496 L109.7 900.644 L105.048 900.644 L105.048 892.496 L89.4458 892.496 L89.4458 887.982 L103.821 866.084 Z" fill="#000000" fill-rule="nonzero" fill-opacity="1" /><path clip-path="url(#clip790)" d="M132.362 869.163 Q128.751 869.163 126.922 872.728 Q125.117 876.269 125.117 883.399 Q125.117 890.505 126.922 894.07 Q128.751 897.612 132.362 897.612 Q135.996 897.612 137.802 894.07 Q139.631 890.505 139.631 883.399 Q139.631 876.269 137.802 872.728 Q135.996 869.163 132.362 869.163 M132.362 865.459 Q138.172 865.459 141.228 870.065 Q144.307 874.649 144.307 883.399 Q144.307 892.126 141.228 896.732 Q138.172 901.315 132.362 901.315 Q126.552 901.315 123.473 896.732 Q120.418 892.126 120.418 883.399 Q120.418 874.649 123.473 870.065 Q126.552 865.459 132.362 865.459 Z" fill="#000000" fill-rule="nonzero" fill-opacity="1" /><path clip-path="url(#clip790)" d="M52.4321 585.895 L82.1079 585.895 L82.1079 589.83 L52.4321 589.83 L52.4321 585.895 Z" fill="#000000" fill-rule="nonzero" fill-opacity="1" /><path clip-path="url(#clip790)" d="M96.2282 598.789 L112.548 598.789 L112.548 602.724 L90.6032 602.724 L90.6032 598.789 Q93.2652 596.034 97.8485 591.404 Q102.455 586.752 103.636 585.409 Q105.881 582.886 106.761 581.15 Q107.663 579.391 107.663 577.701 Q107.663 574.946 105.719 573.21 Q103.798 571.474 100.696 571.474 Q98.4967 571.474 96.043 572.238 Q93.6125 573.002 90.8347 574.553 L90.8347 569.83 Q93.6588 568.696 96.1124 568.117 Q98.5661 567.539 100.603 567.539 Q105.974 567.539 109.168 570.224 Q112.362 572.909 112.362 577.4 Q112.362 579.529 111.552 581.451 Q110.765 583.349 108.659 585.941 Q108.08 586.613 104.978 589.83 Q101.876 593.025 96.2282 598.789 Z" fill="#000000" fill-rule="nonzero" fill-opacity="1" /><path clip-path="url(#clip790)" d="M132.362 571.242 Q128.751 571.242 126.922 574.807 Q125.117 578.349 125.117 585.478 Q125.117 592.585 126.922 596.15 Q128.751 599.691 132.362 599.691 Q135.996 599.691 137.802 596.15 Q139.631 592.585 139.631 585.478 Q139.631 578.349 137.802 574.807 Q135.996 571.242 132.362 571.242 M132.362 567.539 Q138.172 567.539 141.228 572.145 Q144.307 576.728 144.307 585.478 Q144.307 594.205 141.228 598.812 Q138.172 603.395 132.362 603.395 Q126.552 603.395 123.473 598.812 Q120.418 594.205 120.418 585.478 Q120.418 576.728 123.473 572.145 Q126.552 567.539 132.362 567.539 Z" fill="#000000" fill-rule="nonzero" fill-opacity="1" /><path clip-path="url(#clip790)" d="M132.362 273.322 Q128.751 273.322 126.922 276.887 Q125.117 280.429 125.117 287.558 Q125.117 294.665 126.922 298.229 Q128.751 301.771 132.362 301.771 Q135.996 301.771 137.802 298.229 Q139.631 294.665 139.631 287.558 Q139.631 280.429 137.802 276.887 Q135.996 273.322 132.362 273.322 M132.362 269.618 Q138.172 269.618 141.228 274.225 Q144.307 278.808 144.307 287.558 Q144.307 296.285 141.228 300.891 Q138.172 305.475 132.362 305.475 Q126.552 305.475 123.473 300.891 Q120.418 296.285 120.418 287.558 Q120.418 278.808 123.473 274.225 Q126.552 269.618 132.362 269.618 Z" fill="#000000" fill-rule="nonzero" fill-opacity="1" /><circle clip-path="url(#clip792)" cx="229.442" cy="1200.97" r="14.4" fill="#009af9" fill-rule="evenodd" fill-opacity="1" stroke="#000000" stroke-opacity="1" stroke-width="2.688"/>
<circle clip-path="url(#clip792)" cx="247.261" cy="1157.71" r="14.4" fill="#009af9" fill-rule="evenodd" fill-opacity="1" stroke="#000000" stroke-opacity="1" stroke-width="2.688"/>
<circle clip-path="url(#clip792)" cx="265.08" cy="1119.01" r="14.4" fill="#009af9" fill-rule="evenodd" fill-opacity="1" stroke="#000000" stroke-opacity="1" stroke-width="2.688"/>
<circle clip-path="url(#clip792)" cx="282.898" cy="1073.04" r="14.4" fill="#009af9" fill-rule="evenodd" fill-opacity="1" stroke="#000000" stroke-opacity="1" stroke-width="2.688"/>
<circle clip-path="url(#clip792)" cx="300.717" cy="1039.78" r="14.4" fill="#009af9" fill-rule="evenodd" fill-opacity="1" stroke="#000000" stroke-opacity="1" stroke-width="2.688"/>
<circle clip-path="url(#clip792)" cx="318.535" cy="996.505" r="14.4" fill="#009af9" fill-rule="evenodd" fill-opacity="1" stroke="#000000" stroke-opacity="1" stroke-width="2.688"/>
<circle clip-path="url(#clip792)" cx="336.354" cy="951.043" r="14.4" fill="#009af9" fill-rule="evenodd" fill-opacity="1" stroke="#000000" stroke-opacity="1" stroke-width="2.688"/>
<circle clip-path="url(#clip792)" cx="354.172" cy="919.636" r="14.4" fill="#009af9" fill-rule="evenodd" fill-opacity="1" stroke="#000000" stroke-opacity="1" stroke-width="2.688"/>
<circle clip-path="url(#clip792)" cx="371.991" cy="888.244" r="14.4" fill="#009af9" fill-rule="evenodd" fill-opacity="1" stroke="#000000" stroke-opacity="1" stroke-width="2.688"/>
<circle clip-path="url(#clip792)" cx="389.81" cy="849.16" r="14.4" fill="#009af9" fill-rule="evenodd" fill-opacity="1" stroke="#000000" stroke-opacity="1" stroke-width="2.688"/>
<circle clip-path="url(#clip792)" cx="407.628" cy="830.915" r="14.4" fill="#009af9" fill-rule="evenodd" fill-opacity="1" stroke="#000000" stroke-opacity="1" stroke-width="2.688"/>
<circle clip-path="url(#clip792)" cx="425.447" cy="798.59" r="14.4" fill="#009af9" fill-rule="evenodd" fill-opacity="1" stroke="#000000" stroke-opacity="1" stroke-width="2.688"/>
<circle clip-path="url(#clip792)" cx="443.265" cy="761.602" r="14.4" fill="#009af9" fill-rule="evenodd" fill-opacity="1" stroke="#000000" stroke-opacity="1" stroke-width="2.688"/>
<circle clip-path="url(#clip792)" cx="461.084" cy="735.162" r="14.4" fill="#009af9" fill-rule="evenodd" fill-opacity="1" stroke="#000000" stroke-opacity="1" stroke-width="2.688"/>
<circle clip-path="url(#clip792)" cx="478.902" cy="706.898" r="14.4" fill="#009af9" fill-rule="evenodd" fill-opacity="1" stroke="#000000" stroke-opacity="1" stroke-width="2.688"/>
<circle clip-path="url(#clip792)" cx="496.721" cy="685.919" r="14.4" fill="#009af9" fill-rule="evenodd" fill-opacity="1" stroke="#000000" stroke-opacity="1" stroke-width="2.688"/>
<circle clip-path="url(#clip792)" cx="514.54" cy="649.497" r="14.4" fill="#009af9" fill-rule="evenodd" fill-opacity="1" stroke="#000000" stroke-opacity="1" stroke-width="2.688"/>
<circle clip-path="url(#clip792)" cx="532.358" cy="637.361" r="14.4" fill="#009af9" fill-rule="evenodd" fill-opacity="1" stroke="#000000" stroke-opacity="1" stroke-width="2.688"/>
<circle clip-path="url(#clip792)" cx="550.177" cy="606.804" r="14.4" fill="#009af9" fill-rule="evenodd" fill-opacity="1" stroke="#000000" stroke-opacity="1" stroke-width="2.688"/>
<circle clip-path="url(#clip792)" cx="567.995" cy="590.448" r="14.4" fill="#009af9" fill-rule="evenodd" fill-opacity="1" stroke="#000000" stroke-opacity="1" stroke-width="2.688"/>
<circle clip-path="url(#clip792)" cx="585.814" cy="560.531" r="14.4" fill="#009af9" fill-rule="evenodd" fill-opacity="1" stroke="#000000" stroke-opacity="1" stroke-width="2.688"/>
<circle clip-path="url(#clip792)" cx="603.633" cy="542.821" r="14.4" fill="#009af9" fill-rule="evenodd" fill-opacity="1" stroke="#000000" stroke-opacity="1" stroke-width="2.688"/>
<circle clip-path="url(#clip792)" cx="621.451" cy="523.657" r="14.4" fill="#009af9" fill-rule="evenodd" fill-opacity="1" stroke="#000000" stroke-opacity="1" stroke-width="2.688"/>
<circle clip-path="url(#clip792)" cx="639.27" cy="499.468" r="14.4" fill="#009af9" fill-rule="evenodd" fill-opacity="1" stroke="#000000" stroke-opacity="1" stroke-width="2.688"/>
<circle clip-path="url(#clip792)" cx="657.088" cy="483.657" r="14.4" fill="#009af9" fill-rule="evenodd" fill-opacity="1" stroke="#000000" stroke-opacity="1" stroke-width="2.688"/>
<circle clip-path="url(#clip792)" cx="674.907" cy="473.728" r="14.4" fill="#009af9" fill-rule="evenodd" fill-opacity="1" stroke="#000000" stroke-opacity="1" stroke-width="2.688"/>
<circle clip-path="url(#clip792)" cx="692.725" cy="453.013" r="14.4" fill="#009af9" fill-rule="evenodd" fill-opacity="1" stroke="#000000" stroke-opacity="1" stroke-width="2.688"/>
<circle clip-path="url(#clip792)" cx="710.544" cy="427.879" r="14.4" fill="#009af9" fill-rule="evenodd" fill-opacity="1" stroke="#000000" stroke-opacity="1" stroke-width="2.688"/>
<circle clip-path="url(#clip792)" cx="728.363" cy="420.307" r="14.4" fill="#009af9" fill-rule="evenodd" fill-opacity="1" stroke="#000000" stroke-opacity="1" stroke-width="2.688"/>
<circle clip-path="url(#clip792)" cx="746.181" cy="408.498" r="14.4" fill="#009af9" fill-rule="evenodd" fill-opacity="1" stroke="#000000" stroke-opacity="1" stroke-width="2.688"/>
<circle clip-path="url(#clip792)" cx="764" cy="392.863" r="14.4" fill="#009af9" fill-rule="evenodd" fill-opacity="1" stroke="#000000" stroke-opacity="1" stroke-width="2.688"/>
<circle clip-path="url(#clip792)" cx="781.818" cy="372.994" r="14.4" fill="#009af9" fill-rule="evenodd" fill-opacity="1" stroke="#000000" stroke-opacity="1" stroke-width="2.688"/>
<circle clip-path="url(#clip792)" cx="799.637" cy="354.369" r="14.4" fill="#009af9" fill-rule="evenodd" fill-opacity="1" stroke="#000000" stroke-opacity="1" stroke-width="2.688"/>
<circle clip-path="url(#clip792)" cx="817.455" cy="355.632" r="14.4" fill="#009af9" fill-rule="evenodd" fill-opacity="1" stroke="#000000" stroke-opacity="1" stroke-width="2.688"/>
<circle clip-path="url(#clip792)" cx="835.274" cy="330.944" r="14.4" fill="#009af9" fill-rule="evenodd" fill-opacity="1" stroke="#000000" stroke-opacity="1" stroke-width="2.688"/>
<circle clip-path="url(#clip792)" cx="853.093" cy="325.311" r="14.4" fill="#009af9" fill-rule="evenodd" fill-opacity="1" stroke="#000000" stroke-opacity="1" stroke-width="2.688"/>
<circle clip-path="url(#clip792)" cx="870.911" cy="320.608" r="14.4" fill="#009af9" fill-rule="evenodd" fill-opacity="1" stroke="#000000" stroke-opacity="1" stroke-width="2.688"/>
<circle clip-path="url(#clip792)" cx="888.73" cy="308.202" r="14.4" fill="#009af9" fill-rule="evenodd" fill-opacity="1" stroke="#000000" stroke-opacity="1" stroke-width="2.688"/>
<circle clip-path="url(#clip792)" cx="906.548" cy="294.281" r="14.4" fill="#009af9" fill-rule="evenodd" fill-opacity="1" stroke="#000000" stroke-opacity="1" stroke-width="2.688"/>
<circle clip-path="url(#clip792)" cx="924.367" cy="284.558" r="14.4" fill="#009af9" fill-rule="evenodd" fill-opacity="1" stroke="#000000" stroke-opacity="1" stroke-width="2.688"/>
<circle clip-path="url(#clip792)" cx="942.185" cy="276.585" r="14.4" fill="#009af9" fill-rule="evenodd" fill-opacity="1" stroke="#000000" stroke-opacity="1" stroke-width="2.688"/>
<circle clip-path="url(#clip792)" cx="960.004" cy="269.595" r="14.4" fill="#009af9" fill-rule="evenodd" fill-opacity="1" stroke="#000000" stroke-opacity="1" stroke-width="2.688"/>
<circle clip-path="url(#clip792)" cx="977.823" cy="277.345" r="14.4" fill="#009af9" fill-rule="evenodd" fill-opacity="1" stroke="#000000" stroke-opacity="1" stroke-width="2.688"/>
<circle clip-path="url(#clip792)" cx="995.641" cy="273.238" r="14.4" fill="#009af9" fill-rule="evenodd" fill-opacity="1" stroke="#000000" stroke-opacity="1" stroke-width="2.688"/>
<circle clip-path="url(#clip792)" cx="1013.46" cy="269.114" r="14.4" fill="#009af9" fill-rule="evenodd" fill-opacity="1" stroke="#000000" stroke-opacity="1" stroke-width="2.688"/>
<circle clip-path="url(#clip792)" cx="1031.28" cy="259.333" r="14.4" fill="#009af9" fill-rule="evenodd" fill-opacity="1" stroke="#000000" stroke-opacity="1" stroke-width="2.688"/>
<circle clip-path="url(#clip792)" cx="1049.1" cy="254.078" r="14.4" fill="#009af9" fill-rule="evenodd" fill-opacity="1" stroke="#000000" stroke-opacity="1" stroke-width="2.688"/>
<circle clip-path="url(#clip792)" cx="1066.92" cy="260.109" r="14.4" fill="#009af9" fill-rule="evenodd" fill-opacity="1" stroke="#000000" stroke-opacity="1" stroke-width="2.688"/>
<circle clip-path="url(#clip792)" cx="1084.73" cy="244.505" r="14.4" fill="#009af9" fill-rule="evenodd" fill-opacity="1" stroke="#000000" stroke-opacity="1" stroke-width="2.688"/>
<circle clip-path="url(#clip792)" cx="1102.55" cy="245.079" r="14.4" fill="#009af9" fill-rule="evenodd" fill-opacity="1" stroke="#000000" stroke-opacity="1" stroke-width="2.688"/>
<circle clip-path="url(#clip792)" cx="1120.37" cy="250.984" r="14.4" fill="#009af9" fill-rule="evenodd" fill-opacity="1" stroke="#000000" stroke-opacity="1" stroke-width="2.688"/>
<circle clip-path="url(#clip792)" cx="1138.19" cy="243.168" r="14.4" fill="#009af9" fill-rule="evenodd" fill-opacity="1" stroke="#000000" stroke-opacity="1" stroke-width="2.688"/>
<circle clip-path="url(#clip792)" cx="1156.01" cy="250.971" r="14.4" fill="#009af9" fill-rule="evenodd" fill-opacity="1" stroke="#000000" stroke-opacity="1" stroke-width="2.688"/>
<circle clip-path="url(#clip792)" cx="1173.83" cy="251.011" r="14.4" fill="#009af9" fill-rule="evenodd" fill-opacity="1" stroke="#000000" stroke-opacity="1" stroke-width="2.688"/>
<circle clip-path="url(#clip792)" cx="1191.65" cy="253.183" r="14.4" fill="#009af9" fill-rule="evenodd" fill-opacity="1" stroke="#000000" stroke-opacity="1" stroke-width="2.688"/>
<circle clip-path="url(#clip792)" cx="1209.46" cy="261.198" r="14.4" fill="#009af9" fill-rule="evenodd" fill-opacity="1" stroke="#000000" stroke-opacity="1" stroke-width="2.688"/>
<circle clip-path="url(#clip792)" cx="1227.28" cy="254.81" r="14.4" fill="#009af9" fill-rule="evenodd" fill-opacity="1" stroke="#000000" stroke-opacity="1" stroke-width="2.688"/>
<circle clip-path="url(#clip792)" cx="1245.1" cy="268.06" r="14.4" fill="#009af9" fill-rule="evenodd" fill-opacity="1" stroke="#000000" stroke-opacity="1" stroke-width="2.688"/>
<circle clip-path="url(#clip792)" cx="1262.92" cy="273.661" r="14.4" fill="#009af9" fill-rule="evenodd" fill-opacity="1" stroke="#000000" stroke-opacity="1" stroke-width="2.688"/>
<circle clip-path="url(#clip792)" cx="1280.74" cy="264.321" r="14.4" fill="#009af9" fill-rule="evenodd" fill-opacity="1" stroke="#000000" stroke-opacity="1" stroke-width="2.688"/>
<circle clip-path="url(#clip792)" cx="1298.56" cy="270.619" r="14.4" fill="#009af9" fill-rule="evenodd" fill-opacity="1" stroke="#000000" stroke-opacity="1" stroke-width="2.688"/>
<circle clip-path="url(#clip792)" cx="1316.38" cy="277.969" r="14.4" fill="#009af9" fill-rule="evenodd" fill-opacity="1" stroke="#000000" stroke-opacity="1" stroke-width="2.688"/>
<circle clip-path="url(#clip792)" cx="1334.19" cy="280.877" r="14.4" fill="#009af9" fill-rule="evenodd" fill-opacity="1" stroke="#000000" stroke-opacity="1" stroke-width="2.688"/>
<circle clip-path="url(#clip792)" cx="1352.01" cy="294.677" r="14.4" fill="#009af9" fill-rule="evenodd" fill-opacity="1" stroke="#000000" stroke-opacity="1" stroke-width="2.688"/>
<circle clip-path="url(#clip792)" cx="1369.83" cy="293.035" r="14.4" fill="#009af9" fill-rule="evenodd" fill-opacity="1" stroke="#000000" stroke-opacity="1" stroke-width="2.688"/>
<circle clip-path="url(#clip792)" cx="1387.65" cy="298.658" r="14.4" fill="#009af9" fill-rule="evenodd" fill-opacity="1" stroke="#000000" stroke-opacity="1" stroke-width="2.688"/>
<circle clip-path="url(#clip792)" cx="1405.47" cy="301.515" r="14.4" fill="#009af9" fill-rule="evenodd" fill-opacity="1" stroke="#000000" stroke-opacity="1" stroke-width="2.688"/>
<circle clip-path="url(#clip792)" cx="1423.29" cy="305.377" r="14.4" fill="#009af9" fill-rule="evenodd" fill-opacity="1" stroke="#000000" stroke-opacity="1" stroke-width="2.688"/>
<circle clip-path="url(#clip792)" cx="1441.11" cy="310.087" r="14.4" fill="#009af9" fill-rule="evenodd" fill-opacity="1" stroke="#000000" stroke-opacity="1" stroke-width="2.688"/>
<circle clip-path="url(#clip792)" cx="1458.92" cy="310.609" r="14.4" fill="#009af9" fill-rule="evenodd" fill-opacity="1" stroke="#000000" stroke-opacity="1" stroke-width="2.688"/>
<circle clip-path="url(#clip792)" cx="1476.74" cy="320.591" r="14.4" fill="#009af9" fill-rule="evenodd" fill-opacity="1" stroke="#000000" stroke-opacity="1" stroke-width="2.688"/>
<circle clip-path="url(#clip792)" cx="1494.56" cy="312.946" r="14.4" fill="#009af9" fill-rule="evenodd" fill-opacity="1" stroke="#000000" stroke-opacity="1" stroke-width="2.688"/>
<circle clip-path="url(#clip792)" cx="1512.38" cy="314.981" r="14.4" fill="#009af9" fill-rule="evenodd" fill-opacity="1" stroke="#000000" stroke-opacity="1" stroke-width="2.688"/>
<circle clip-path="url(#clip792)" cx="1530.2" cy="323.108" r="14.4" fill="#009af9" fill-rule="evenodd" fill-opacity="1" stroke="#000000" stroke-opacity="1" stroke-width="2.688"/>
<circle clip-path="url(#clip792)" cx="1548.02" cy="333.328" r="14.4" fill="#009af9" fill-rule="evenodd" fill-opacity="1" stroke="#000000" stroke-opacity="1" stroke-width="2.688"/>
<circle clip-path="url(#clip792)" cx="1565.84" cy="333.139" r="14.4" fill="#009af9" fill-rule="evenodd" fill-opacity="1" stroke="#000000" stroke-opacity="1" stroke-width="2.688"/>
<circle clip-path="url(#clip792)" cx="1583.65" cy="328.06" r="14.4" fill="#009af9" fill-rule="evenodd" fill-opacity="1" stroke="#000000" stroke-opacity="1" stroke-width="2.688"/>
<circle clip-path="url(#clip792)" cx="1601.47" cy="324.753" r="14.4" fill="#009af9" fill-rule="evenodd" fill-opacity="1" stroke="#000000" stroke-opacity="1" stroke-width="2.688"/>
<circle clip-path="url(#clip792)" cx="1619.29" cy="322.431" r="14.4" fill="#009af9" fill-rule="evenodd" fill-opacity="1" stroke="#000000" stroke-opacity="1" stroke-width="2.688"/>
<circle clip-path="url(#clip792)" cx="1637.11" cy="331.885" r="14.4" fill="#009af9" fill-rule="evenodd" fill-opacity="1" stroke="#000000" stroke-opacity="1" stroke-width="2.688"/>
<circle clip-path="url(#clip792)" cx="1654.93" cy="322.616" r="14.4" fill="#009af9" fill-rule="evenodd" fill-opacity="1" stroke="#000000" stroke-opacity="1" stroke-width="2.688"/>
<circle clip-path="url(#clip792)" cx="1672.75" cy="318.832" r="14.4" fill="#009af9" fill-rule="evenodd" fill-opacity="1" stroke="#000000" stroke-opacity="1" stroke-width="2.688"/>
<circle clip-path="url(#clip792)" cx="1690.57" cy="314" r="14.4" fill="#009af9" fill-rule="evenodd" fill-opacity="1" stroke="#000000" stroke-opacity="1" stroke-width="2.688"/>
<circle clip-path="url(#clip792)" cx="1708.38" cy="312.465" r="14.4" fill="#009af9" fill-rule="evenodd" fill-opacity="1" stroke="#000000" stroke-opacity="1" stroke-width="2.688"/>
<circle clip-path="url(#clip792)" cx="1726.2" cy="303.736" r="14.4" fill="#009af9" fill-rule="evenodd" fill-opacity="1" stroke="#000000" stroke-opacity="1" stroke-width="2.688"/>
<circle clip-path="url(#clip792)" cx="1744.02" cy="300.3" r="14.4" fill="#009af9" fill-rule="evenodd" fill-opacity="1" stroke="#000000" stroke-opacity="1" stroke-width="2.688"/>
<circle clip-path="url(#clip792)" cx="1761.84" cy="285.462" r="14.4" fill="#009af9" fill-rule="evenodd" fill-opacity="1" stroke="#000000" stroke-opacity="1" stroke-width="2.688"/>
<circle clip-path="url(#clip792)" cx="1779.66" cy="284.354" r="14.4" fill="#009af9" fill-rule="evenodd" fill-opacity="1" stroke="#000000" stroke-opacity="1" stroke-width="2.688"/>
<circle clip-path="url(#clip792)" cx="1797.48" cy="272.092" r="14.4" fill="#009af9" fill-rule="evenodd" fill-opacity="1" stroke="#000000" stroke-opacity="1" stroke-width="2.688"/>
<circle clip-path="url(#clip792)" cx="1815.3" cy="258.774" r="14.4" fill="#009af9" fill-rule="evenodd" fill-opacity="1" stroke="#000000" stroke-opacity="1" stroke-width="2.688"/>
<circle clip-path="url(#clip792)" cx="1833.11" cy="258.209" r="14.4" fill="#009af9" fill-rule="evenodd" fill-opacity="1" stroke="#000000" stroke-opacity="1" stroke-width="2.688"/>
<circle clip-path="url(#clip792)" cx="1850.93" cy="241.659" r="14.4" fill="#009af9" fill-rule="evenodd" fill-opacity="1" stroke="#000000" stroke-opacity="1" stroke-width="2.688"/>
<circle clip-path="url(#clip792)" cx="1868.75" cy="220.507" r="14.4" fill="#009af9" fill-rule="evenodd" fill-opacity="1" stroke="#000000" stroke-opacity="1" stroke-width="2.688"/>
<circle clip-path="url(#clip792)" cx="1886.57" cy="217.855" r="14.4" fill="#009af9" fill-rule="evenodd" fill-opacity="1" stroke="#000000" stroke-opacity="1" stroke-width="2.688"/>
<circle clip-path="url(#clip792)" cx="1904.39" cy="191.322" r="14.4" fill="#009af9" fill-rule="evenodd" fill-opacity="1" stroke="#000000" stroke-opacity="1" stroke-width="2.688"/>
<circle clip-path="url(#clip792)" cx="1922.21" cy="183.369" r="14.4" fill="#009af9" fill-rule="evenodd" fill-opacity="1" stroke="#000000" stroke-opacity="1" stroke-width="2.688"/>
<circle clip-path="url(#clip792)" cx="1940.03" cy="162.653" r="14.4" fill="#009af9" fill-rule="evenodd" fill-opacity="1" stroke="#000000" stroke-opacity="1" stroke-width="2.688"/>
<circle clip-path="url(#clip792)" cx="1957.84" cy="143.647" r="14.4" fill="#009af9" fill-rule="evenodd" fill-opacity="1" stroke="#000000" stroke-opacity="1" stroke-width="2.688"/>
<circle clip-path="url(#clip792)" cx="1975.66" cy="126.797" r="14.4" fill="#009af9" fill-rule="evenodd" fill-opacity="1" stroke="#000000" stroke-opacity="1" stroke-width="2.688"/>
<circle clip-path="url(#clip792)" cx="1993.48" cy="105.526" r="14.4" fill="#009af9" fill-rule="evenodd" fill-opacity="1" stroke="#000000" stroke-opacity="1" stroke-width="2.688"/>
<circle clip-path="url(#clip792)" cx="2011.3" cy="80.8479" r="14.4" fill="#009af9" fill-rule="evenodd" fill-opacity="1" stroke="#000000" stroke-opacity="1" stroke-width="2.688"/>
<path clip-path="url(#clip790)" d="M238.946 190.502 L480.253 190.502 L480.253 86.8219 L238.946 86.8219  Z" fill="#ffffff" fill-rule="evenodd" fill-opacity="1"/>
<polyline clip-path="url(#clip790)" style="stroke:#000000; stroke-linecap:round; stroke-linejoin:round; stroke-width:4; stroke-opacity:1; fill:none" points="238.946,190.502 480.253,190.502 480.253,86.8219 238.946,86.8219 238.946,190.502 "/>
<circle clip-path="url(#clip790)" cx="322.891" cy="138.662" r="20.48" fill="#009af9" fill-rule="evenodd" fill-opacity="1" stroke="#000000" stroke-opacity="1" stroke-width="3.82293"/>
<path clip-path="url(#clip790)" d="M420.679 158.349 Q418.873 162.979 417.16 164.391 Q415.447 165.803 412.577 165.803 L409.174 165.803 L409.174 162.238 L411.674 162.238 Q413.433 162.238 414.406 161.405 Q415.378 160.572 416.558 157.47 L417.322 155.525 L406.836 130.016 L411.35 130.016 L419.452 150.294 L427.554 130.016 L432.068 130.016 L420.679 158.349 Z" fill="#000000" fill-rule="nonzero" fill-opacity="1" /><path clip-path="url(#clip790)" d="M439.359 152.007 L446.998 152.007 L446.998 125.641 L438.688 127.308 L438.688 123.049 L446.952 121.382 L451.628 121.382 L451.628 152.007 L459.266 152.007 L459.266 155.942 L439.359 155.942 L439.359 152.007 Z" fill="#000000" fill-rule="nonzero" fill-opacity="1" /></svg>
