<?xml version="1.0" encoding="utf-8"?>
<svg xmlns="http://www.w3.org/2000/svg" xmlns:xlink="http://www.w3.org/1999/xlink" width="528" height="336" viewBox="0 0 2112 1344">
<defs>
  <clipPath id="clip190">
    <rect x="0" y="0" width="2112" height="1344"/>
  </clipPath>
</defs>
<path clip-path="url(#clip190)" d="M0 1344 L2112 1344 L2112 0 L0 0  Z" fill="#ffffff" fill-rule="evenodd" fill-opacity="1"/>
<defs>
  <clipPath id="clip191">
    <rect x="422" y="0" width="1479" height="1344"/>
  </clipPath>
</defs>
<path clip-path="url(#clip190)" d="M146.311 1234.58 L2064.76 1234.58 L2064.76 47.2441 L146.311 47.2441  Z" fill="#ffffff" fill-rule="evenodd" fill-opacity="1"/>
<defs>
  <clipPath id="clip192">
    <rect x="146" y="47" width="1919" height="1188"/>
  </clipPath>
</defs>
<polyline clip-path="url(#clip192)" style="stroke:#000000; stroke-linecap:round; stroke-linejoin:round; stroke-width:2; stroke-opacity:0.1; fill:none" points="200.606,1234.58 200.606,47.2441 "/>
<polyline clip-path="url(#clip192)" style="stroke:#000000; stroke-linecap:round; stroke-linejoin:round; stroke-width:2; stroke-opacity:0.1; fill:none" points="502.249,1234.58 502.249,47.2441 "/>
<polyline clip-path="url(#clip192)" style="stroke:#000000; stroke-linecap:round; stroke-linejoin:round; stroke-width:2; stroke-opacity:0.1; fill:none" points="803.891,1234.58 803.891,47.2441 "/>
<polyline clip-path="url(#clip192)" style="stroke:#000000; stroke-linecap:round; stroke-linejoin:round; stroke-width:2; stroke-opacity:0.1; fill:none" points="1105.53,1234.58 1105.53,47.2441 "/>
<polyline clip-path="url(#clip192)" style="stroke:#000000; stroke-linecap:round; stroke-linejoin:round; stroke-width:2; stroke-opacity:0.1; fill:none" points="1407.18,1234.58 1407.18,47.2441 "/>
<polyline clip-path="url(#clip192)" style="stroke:#000000; stroke-linecap:round; stroke-linejoin:round; stroke-width:2; stroke-opacity:0.1; fill:none" points="1708.82,1234.58 1708.82,47.2441 "/>
<polyline clip-path="url(#clip192)" style="stroke:#000000; stroke-linecap:round; stroke-linejoin:round; stroke-width:2; stroke-opacity:0.1; fill:none" points="2010.46,1234.58 2010.46,47.2441 "/>
<polyline clip-path="url(#clip190)" style="stroke:#000000; stroke-linecap:round; stroke-linejoin:round; stroke-width:4; stroke-opacity:1; fill:none" points="146.311,1234.58 2064.76,1234.58 "/>
<polyline clip-path="url(#clip190)" style="stroke:#000000; stroke-linecap:round; stroke-linejoin:round; stroke-width:4; stroke-opacity:1; fill:none" points="200.606,1234.58 200.606,1215.68 "/>
<polyline clip-path="url(#clip190)" style="stroke:#000000; stroke-linecap:round; stroke-linejoin:round; stroke-width:4; stroke-opacity:1; fill:none" points="502.249,1234.58 502.249,1215.68 "/>
<polyline clip-path="url(#clip190)" style="stroke:#000000; stroke-linecap:round; stroke-linejoin:round; stroke-width:4; stroke-opacity:1; fill:none" points="803.891,1234.58 803.891,1215.68 "/>
<polyline clip-path="url(#clip190)" style="stroke:#000000; stroke-linecap:round; stroke-linejoin:round; stroke-width:4; stroke-opacity:1; fill:none" points="1105.53,1234.58 1105.53,1215.68 "/>
<polyline clip-path="url(#clip190)" style="stroke:#000000; stroke-linecap:round; stroke-linejoin:round; stroke-width:4; stroke-opacity:1; fill:none" points="1407.18,1234.58 1407.18,1215.68 "/>
<polyline clip-path="url(#clip190)" style="stroke:#000000; stroke-linecap:round; stroke-linejoin:round; stroke-width:4; stroke-opacity:1; fill:none" points="1708.82,1234.58 1708.82,1215.68 "/>
<polyline clip-path="url(#clip190)" style="stroke:#000000; stroke-linecap:round; stroke-linejoin:round; stroke-width:4; stroke-opacity:1; fill:none" points="2010.46,1234.58 2010.46,1215.68 "/>
<path clip-path="url(#clip190)" d="M170.074 1277.85 L199.75 1277.85 L199.75 1281.78 L170.074 1281.78 L170.074 1277.85 Z" fill="#000000" fill-rule="nonzero" fill-opacity="1" /><path clip-path="url(#clip190)" d="M224.009 1276.04 Q227.366 1276.76 229.241 1279.03 Q231.139 1281.3 231.139 1284.63 Q231.139 1289.74 227.62 1292.55 Q224.102 1295.35 217.62 1295.35 Q215.444 1295.35 213.13 1294.91 Q210.838 1294.49 208.384 1293.63 L208.384 1289.12 Q210.329 1290.25 212.643 1290.83 Q214.958 1291.41 217.481 1291.41 Q221.88 1291.41 224.171 1289.67 Q226.486 1287.94 226.486 1284.63 Q226.486 1281.57 224.333 1279.86 Q222.204 1278.12 218.384 1278.12 L214.356 1278.12 L214.356 1274.28 L218.569 1274.28 Q222.018 1274.28 223.847 1272.92 Q225.676 1271.53 225.676 1268.93 Q225.676 1266.27 223.778 1264.86 Q221.903 1263.42 218.384 1263.42 Q216.463 1263.42 214.264 1263.84 Q212.065 1264.26 209.426 1265.14 L209.426 1260.97 Q212.088 1260.23 214.403 1259.86 Q216.741 1259.49 218.801 1259.49 Q224.125 1259.49 227.227 1261.92 Q230.329 1264.33 230.329 1268.45 Q230.329 1271.32 228.685 1273.31 Q227.042 1275.28 224.009 1276.04 Z" fill="#000000" fill-rule="nonzero" fill-opacity="1" /><path clip-path="url(#clip190)" d="M472.191 1277.85 L501.867 1277.85 L501.867 1281.78 L472.191 1281.78 L472.191 1277.85 Z" fill="#000000" fill-rule="nonzero" fill-opacity="1" /><path clip-path="url(#clip190)" d="M515.987 1290.74 L532.306 1290.74 L532.306 1294.67 L510.362 1294.67 L510.362 1290.74 Q513.024 1287.99 517.607 1283.36 Q522.214 1278.7 523.395 1277.36 Q525.64 1274.84 526.519 1273.1 Q527.422 1271.34 527.422 1269.65 Q527.422 1266.9 525.478 1265.16 Q523.557 1263.42 520.455 1263.42 Q518.256 1263.42 515.802 1264.19 Q513.371 1264.95 510.594 1266.5 L510.594 1261.78 Q513.418 1260.65 515.871 1260.07 Q518.325 1259.49 520.362 1259.49 Q525.732 1259.49 528.927 1262.17 Q532.121 1264.86 532.121 1269.35 Q532.121 1271.48 531.311 1273.4 Q530.524 1275.3 528.418 1277.89 Q527.839 1278.56 524.737 1281.78 Q521.635 1284.98 515.987 1290.74 Z" fill="#000000" fill-rule="nonzero" fill-opacity="1" /><path clip-path="url(#clip190)" d="M773.648 1277.85 L803.324 1277.85 L803.324 1281.78 L773.648 1281.78 L773.648 1277.85 Z" fill="#000000" fill-rule="nonzero" fill-opacity="1" /><path clip-path="url(#clip190)" d="M814.227 1290.74 L821.866 1290.74 L821.866 1264.37 L813.555 1266.04 L813.555 1261.78 L821.819 1260.11 L826.495 1260.11 L826.495 1290.74 L834.134 1290.74 L834.134 1294.67 L814.227 1294.67 L814.227 1290.74 Z" fill="#000000" fill-rule="nonzero" fill-opacity="1" /><path clip-path="url(#clip190)" d="M1105.53 1263.19 Q1101.92 1263.19 1100.09 1266.76 Q1098.29 1270.3 1098.29 1277.43 Q1098.29 1284.54 1100.09 1288.1 Q1101.92 1291.64 1105.53 1291.64 Q1109.17 1291.64 1110.97 1288.1 Q1112.8 1284.54 1112.8 1277.43 Q1112.8 1270.3 1110.97 1266.76 Q1109.17 1263.19 1105.53 1263.19 M1105.53 1259.49 Q1111.34 1259.49 1114.4 1264.1 Q1117.48 1268.68 1117.48 1277.43 Q1117.48 1286.16 1114.4 1290.76 Q1111.34 1295.35 1105.53 1295.35 Q1099.72 1295.35 1096.64 1290.76 Q1093.59 1286.16 1093.59 1277.43 Q1093.59 1268.68 1096.64 1264.1 Q1099.72 1259.49 1105.53 1259.49 Z" fill="#000000" fill-rule="nonzero" fill-opacity="1" /><path clip-path="url(#clip190)" d="M1397.56 1290.74 L1405.2 1290.74 L1405.2 1264.37 L1396.89 1266.04 L1396.89 1261.78 L1405.15 1260.11 L1409.83 1260.11 L1409.83 1290.74 L1417.46 1290.74 L1417.46 1294.67 L1397.56 1294.67 L1397.56 1290.74 Z" fill="#000000" fill-rule="nonzero" fill-opacity="1" /><path clip-path="url(#clip190)" d="M1703.47 1290.74 L1719.79 1290.74 L1719.79 1294.67 L1697.85 1294.67 L1697.85 1290.74 Q1700.51 1287.99 1705.09 1283.36 Q1709.7 1278.7 1710.88 1277.36 Q1713.12 1274.84 1714 1273.1 Q1714.91 1271.34 1714.91 1269.65 Q1714.91 1266.9 1712.96 1265.16 Q1711.04 1263.42 1707.94 1263.42 Q1705.74 1263.42 1703.29 1264.19 Q1700.86 1264.95 1698.08 1266.5 L1698.08 1261.78 Q1700.9 1260.65 1703.36 1260.07 Q1705.81 1259.49 1707.85 1259.49 Q1713.22 1259.49 1716.41 1262.17 Q1719.6 1264.86 1719.6 1269.35 Q1719.6 1271.48 1718.79 1273.4 Q1718.01 1275.3 1715.9 1277.89 Q1715.32 1278.56 1712.22 1281.78 Q1709.12 1284.98 1703.47 1290.74 Z" fill="#000000" fill-rule="nonzero" fill-opacity="1" /><path clip-path="url(#clip190)" d="M2014.71 1276.04 Q2018.06 1276.76 2019.94 1279.03 Q2021.84 1281.3 2021.84 1284.63 Q2021.84 1289.74 2018.32 1292.55 Q2014.8 1295.35 2008.32 1295.35 Q2006.14 1295.35 2003.83 1294.91 Q2001.54 1294.49 1999.08 1293.63 L1999.08 1289.12 Q2001.03 1290.25 2003.34 1290.83 Q2005.66 1291.41 2008.18 1291.41 Q2012.58 1291.41 2014.87 1289.67 Q2017.18 1287.94 2017.18 1284.63 Q2017.18 1281.57 2015.03 1279.86 Q2012.9 1278.12 2009.08 1278.12 L2005.06 1278.12 L2005.06 1274.28 L2009.27 1274.28 Q2012.72 1274.28 2014.55 1272.92 Q2016.37 1271.53 2016.37 1268.93 Q2016.37 1266.27 2014.48 1264.86 Q2012.6 1263.42 2009.08 1263.42 Q2007.16 1263.42 2004.96 1263.84 Q2002.76 1264.26 2000.12 1265.14 L2000.12 1260.97 Q2002.79 1260.23 2005.1 1259.86 Q2007.44 1259.49 2009.5 1259.49 Q2014.82 1259.49 2017.93 1261.92 Q2021.03 1264.33 2021.03 1268.45 Q2021.03 1271.32 2019.38 1273.31 Q2017.74 1275.28 2014.71 1276.04 Z" fill="#000000" fill-rule="nonzero" fill-opacity="1" /><polyline clip-path="url(#clip192)" style="stroke:#000000; stroke-linecap:round; stroke-linejoin:round; stroke-width:2; stroke-opacity:0.1; fill:none" points="146.311,1200.97 2064.76,1200.97 "/>
<polyline clip-path="url(#clip192)" style="stroke:#000000; stroke-linecap:round; stroke-linejoin:round; stroke-width:2; stroke-opacity:0.1; fill:none" points="146.311,952.058 2064.76,952.058 "/>
<polyline clip-path="url(#clip192)" style="stroke:#000000; stroke-linecap:round; stroke-linejoin:round; stroke-width:2; stroke-opacity:0.1; fill:none" points="146.311,703.141 2064.76,703.141 "/>
<polyline clip-path="url(#clip192)" style="stroke:#000000; stroke-linecap:round; stroke-linejoin:round; stroke-width:2; stroke-opacity:0.1; fill:none" points="146.311,454.224 2064.76,454.224 "/>
<polyline clip-path="url(#clip192)" style="stroke:#000000; stroke-linecap:round; stroke-linejoin:round; stroke-width:2; stroke-opacity:0.1; fill:none" points="146.311,205.306 2064.76,205.306 "/>
<polyline clip-path="url(#clip190)" style="stroke:#000000; stroke-linecap:round; stroke-linejoin:round; stroke-width:4; stroke-opacity:1; fill:none" points="146.311,1234.58 146.311,47.2441 "/>
<polyline clip-path="url(#clip190)" style="stroke:#000000; stroke-linecap:round; stroke-linejoin:round; stroke-width:4; stroke-opacity:1; fill:none" points="146.311,1200.97 165.209,1200.97 "/>
<polyline clip-path="url(#clip190)" style="stroke:#000000; stroke-linecap:round; stroke-linejoin:round; stroke-width:4; stroke-opacity:1; fill:none" points="146.311,952.058 165.209,952.058 "/>
<polyline clip-path="url(#clip190)" style="stroke:#000000; stroke-linecap:round; stroke-linejoin:round; stroke-width:4; stroke-opacity:1; fill:none" points="146.311,703.141 165.209,703.141 "/>
<polyline clip-path="url(#clip190)" style="stroke:#000000; stroke-linecap:round; stroke-linejoin:round; stroke-width:4; stroke-opacity:1; fill:none" points="146.311,454.224 165.209,454.224 "/>
<polyline clip-path="url(#clip190)" style="stroke:#000000; stroke-linecap:round; stroke-linejoin:round; stroke-width:4; stroke-opacity:1; fill:none" points="146.311,205.306 165.209,205.306 "/>
<path clip-path="url(#clip190)" d="M53.0108 1201.43 L82.6866 1201.43 L82.6866 1205.36 L53.0108 1205.36 L53.0108 1201.43 Z" fill="#000000" fill-rule="nonzero" fill-opacity="1" /><path clip-path="url(#clip190)" d="M102.779 1201.84 Q99.4458 1201.84 97.5245 1203.63 Q95.6263 1205.41 95.6263 1208.53 Q95.6263 1211.66 97.5245 1213.44 Q99.4458 1215.22 102.779 1215.22 Q106.112 1215.22 108.034 1213.44 Q109.955 1211.63 109.955 1208.53 Q109.955 1205.41 108.034 1203.63 Q106.136 1201.84 102.779 1201.84 M98.1032 1199.85 Q95.0939 1199.11 93.4041 1197.05 Q91.7375 1194.99 91.7375 1192.03 Q91.7375 1187.88 94.6773 1185.48 Q97.6402 1183.07 102.779 1183.07 Q107.941 1183.07 110.881 1185.48 Q113.821 1187.88 113.821 1192.03 Q113.821 1194.99 112.131 1197.05 Q110.464 1199.11 107.478 1199.85 Q110.858 1200.64 112.733 1202.93 Q114.631 1205.22 114.631 1208.53 Q114.631 1213.56 111.552 1216.24 Q108.497 1218.93 102.779 1218.93 Q97.0615 1218.93 93.9828 1216.24 Q90.9273 1213.56 90.9273 1208.53 Q90.9273 1205.22 92.8254 1202.93 Q94.7236 1200.64 98.1032 1199.85 M96.3902 1192.47 Q96.3902 1195.15 98.0569 1196.66 Q99.7467 1198.16 102.779 1198.16 Q105.788 1198.16 107.478 1196.66 Q109.191 1195.15 109.191 1192.47 Q109.191 1189.78 107.478 1188.28 Q105.788 1186.77 102.779 1186.77 Q99.7467 1186.77 98.0569 1188.28 Q96.3902 1189.78 96.3902 1192.47 Z" fill="#000000" fill-rule="nonzero" fill-opacity="1" /><path clip-path="url(#clip190)" d="M52.7562 952.509 L82.432 952.509 L82.432 956.444 L52.7562 956.444 L52.7562 952.509 Z" fill="#000000" fill-rule="nonzero" fill-opacity="1" /><path clip-path="url(#clip190)" d="M103.103 950.194 Q99.955 950.194 98.1032 952.347 Q96.2745 954.5 96.2745 958.25 Q96.2745 961.977 98.1032 964.153 Q99.955 966.305 103.103 966.305 Q106.251 966.305 108.08 964.153 Q109.932 961.977 109.932 958.25 Q109.932 954.5 108.08 952.347 Q106.251 950.194 103.103 950.194 M112.386 935.542 L112.386 939.801 Q110.626 938.968 108.821 938.528 Q107.038 938.088 105.279 938.088 Q100.649 938.088 98.1958 941.213 Q95.7652 944.338 95.418 950.657 Q96.7837 948.644 98.8439 947.579 Q100.904 946.491 103.381 946.491 Q108.589 946.491 111.598 949.662 Q114.631 952.81 114.631 958.25 Q114.631 963.574 111.483 966.792 Q108.335 970.009 103.103 970.009 Q97.1078 970.009 93.9365 965.426 Q90.7653 960.819 90.7653 952.093 Q90.7653 943.898 94.6541 939.037 Q98.543 934.153 105.094 934.153 Q106.853 934.153 108.636 934.5 Q110.441 934.847 112.386 935.542 Z" fill="#000000" fill-rule="nonzero" fill-opacity="1" /><path clip-path="url(#clip190)" d="M52.4321 703.592 L82.1079 703.592 L82.1079 707.527 L52.4321 707.527 L52.4321 703.592 Z" fill="#000000" fill-rule="nonzero" fill-opacity="1" /><path clip-path="url(#clip190)" d="M105.048 689.935 L93.2421 708.384 L105.048 708.384 L105.048 689.935 M103.821 685.861 L109.7 685.861 L109.7 708.384 L114.631 708.384 L114.631 712.273 L109.7 712.273 L109.7 720.421 L105.048 720.421 L105.048 712.273 L89.4458 712.273 L89.4458 707.759 L103.821 685.861 Z" fill="#000000" fill-rule="nonzero" fill-opacity="1" /><path clip-path="url(#clip190)" d="M54.5154 454.675 L84.1912 454.675 L84.1912 458.61 L54.5154 458.61 L54.5154 454.675 Z" fill="#000000" fill-rule="nonzero" fill-opacity="1" /><path clip-path="url(#clip190)" d="M98.3115 467.568 L114.631 467.568 L114.631 471.504 L92.6865 471.504 L92.6865 467.568 Q95.3486 464.814 99.9319 460.184 Q104.538 455.531 105.719 454.189 Q107.964 451.666 108.844 449.93 Q109.747 448.17 109.747 446.481 Q109.747 443.726 107.802 441.99 Q105.881 440.254 102.779 440.254 Q100.58 440.254 98.1263 441.018 Q95.6958 441.782 92.918 443.332 L92.918 438.61 Q95.7421 437.476 98.1958 436.897 Q100.649 436.319 102.686 436.319 Q108.057 436.319 111.251 439.004 Q114.446 441.689 114.446 446.18 Q114.446 448.309 113.636 450.231 Q112.848 452.129 110.742 454.721 Q110.163 455.393 107.061 458.61 Q103.96 461.805 98.3115 467.568 Z" fill="#000000" fill-rule="nonzero" fill-opacity="1" /><path clip-path="url(#clip190)" d="M102.686 191.105 Q99.0754 191.105 97.2467 194.67 Q95.4412 198.212 95.4412 205.341 Q95.4412 212.448 97.2467 216.012 Q99.0754 219.554 102.686 219.554 Q106.321 219.554 108.126 216.012 Q109.955 212.448 109.955 205.341 Q109.955 198.212 108.126 194.67 Q106.321 191.105 102.686 191.105 M102.686 187.401 Q108.497 187.401 111.552 192.008 Q114.631 196.591 114.631 205.341 Q114.631 214.068 111.552 218.674 Q108.497 223.258 102.686 223.258 Q96.8763 223.258 93.7976 218.674 Q90.7421 214.068 90.7421 205.341 Q90.7421 196.591 93.7976 192.008 Q96.8763 187.401 102.686 187.401 Z" fill="#000000" fill-rule="nonzero" fill-opacity="1" /><circle clip-path="url(#clip192)" cx="200.606" cy="1200.97" r="14.4" fill="#009af9" fill-rule="evenodd" fill-opacity="1" stroke="#000000" stroke-opacity="1" stroke-width="2.688"/>
<circle clip-path="url(#clip192)" cx="230.771" cy="1127.54" r="14.4" fill="#009af9" fill-rule="evenodd" fill-opacity="1" stroke="#000000" stroke-opacity="1" stroke-width="2.688"/>
<circle clip-path="url(#clip192)" cx="260.935" cy="1056.6" r="14.4" fill="#009af9" fill-rule="evenodd" fill-opacity="1" stroke="#000000" stroke-opacity="1" stroke-width="2.688"/>
<circle clip-path="url(#clip192)" cx="291.099" cy="988.151" r="14.4" fill="#009af9" fill-rule="evenodd" fill-opacity="1" stroke="#000000" stroke-opacity="1" stroke-width="2.688"/>
<circle clip-path="url(#clip192)" cx="321.263" cy="922.188" r="14.4" fill="#009af9" fill-rule="evenodd" fill-opacity="1" stroke="#000000" stroke-opacity="1" stroke-width="2.688"/>
<circle clip-path="url(#clip192)" cx="351.428" cy="858.714" r="14.4" fill="#009af9" fill-rule="evenodd" fill-opacity="1" stroke="#000000" stroke-opacity="1" stroke-width="2.688"/>
<circle clip-path="url(#clip192)" cx="381.592" cy="797.729" r="14.4" fill="#009af9" fill-rule="evenodd" fill-opacity="1" stroke="#000000" stroke-opacity="1" stroke-width="2.688"/>
<circle clip-path="url(#clip192)" cx="411.756" cy="739.234" r="14.4" fill="#009af9" fill-rule="evenodd" fill-opacity="1" stroke="#000000" stroke-opacity="1" stroke-width="2.688"/>
<circle clip-path="url(#clip192)" cx="441.92" cy="683.227" r="14.4" fill="#009af9" fill-rule="evenodd" fill-opacity="1" stroke="#000000" stroke-opacity="1" stroke-width="2.688"/>
<circle clip-path="url(#clip192)" cx="472.085" cy="629.71" r="14.4" fill="#009af9" fill-rule="evenodd" fill-opacity="1" stroke="#000000" stroke-opacity="1" stroke-width="2.688"/>
<circle clip-path="url(#clip192)" cx="502.249" cy="578.682" r="14.4" fill="#009af9" fill-rule="evenodd" fill-opacity="1" stroke="#000000" stroke-opacity="1" stroke-width="2.688"/>
<circle clip-path="url(#clip192)" cx="532.413" cy="530.143" r="14.4" fill="#009af9" fill-rule="evenodd" fill-opacity="1" stroke="#000000" stroke-opacity="1" stroke-width="2.688"/>
<circle clip-path="url(#clip192)" cx="562.577" cy="484.094" r="14.4" fill="#009af9" fill-rule="evenodd" fill-opacity="1" stroke="#000000" stroke-opacity="1" stroke-width="2.688"/>
<circle clip-path="url(#clip192)" cx="592.741" cy="440.533" r="14.4" fill="#009af9" fill-rule="evenodd" fill-opacity="1" stroke="#000000" stroke-opacity="1" stroke-width="2.688"/>
<circle clip-path="url(#clip192)" cx="622.906" cy="399.462" r="14.4" fill="#009af9" fill-rule="evenodd" fill-opacity="1" stroke="#000000" stroke-opacity="1" stroke-width="2.688"/>
<circle clip-path="url(#clip192)" cx="653.07" cy="360.88" r="14.4" fill="#009af9" fill-rule="evenodd" fill-opacity="1" stroke="#000000" stroke-opacity="1" stroke-width="2.688"/>
<circle clip-path="url(#clip192)" cx="683.234" cy="324.787" r="14.4" fill="#009af9" fill-rule="evenodd" fill-opacity="1" stroke="#000000" stroke-opacity="1" stroke-width="2.688"/>
<circle clip-path="url(#clip192)" cx="713.398" cy="291.183" r="14.4" fill="#009af9" fill-rule="evenodd" fill-opacity="1" stroke="#000000" stroke-opacity="1" stroke-width="2.688"/>
<circle clip-path="url(#clip192)" cx="743.563" cy="260.068" r="14.4" fill="#009af9" fill-rule="evenodd" fill-opacity="1" stroke="#000000" stroke-opacity="1" stroke-width="2.688"/>
<circle clip-path="url(#clip192)" cx="773.727" cy="231.443" r="14.4" fill="#009af9" fill-rule="evenodd" fill-opacity="1" stroke="#000000" stroke-opacity="1" stroke-width="2.688"/>
<circle clip-path="url(#clip192)" cx="803.891" cy="205.306" r="14.4" fill="#009af9" fill-rule="evenodd" fill-opacity="1" stroke="#000000" stroke-opacity="1" stroke-width="2.688"/>
<circle clip-path="url(#clip192)" cx="834.055" cy="181.659" r="14.4" fill="#009af9" fill-rule="evenodd" fill-opacity="1" stroke="#000000" stroke-opacity="1" stroke-width="2.688"/>
<circle clip-path="url(#clip192)" cx="864.22" cy="160.501" r="14.4" fill="#009af9" fill-rule="evenodd" fill-opacity="1" stroke="#000000" stroke-opacity="1" stroke-width="2.688"/>
<circle clip-path="url(#clip192)" cx="894.384" cy="141.833" r="14.4" fill="#009af9" fill-rule="evenodd" fill-opacity="1" stroke="#000000" stroke-opacity="1" stroke-width="2.688"/>
<circle clip-path="url(#clip192)" cx="924.548" cy="125.653" r="14.4" fill="#009af9" fill-rule="evenodd" fill-opacity="1" stroke="#000000" stroke-opacity="1" stroke-width="2.688"/>
<circle clip-path="url(#clip192)" cx="954.712" cy="111.963" r="14.4" fill="#009af9" fill-rule="evenodd" fill-opacity="1" stroke="#000000" stroke-opacity="1" stroke-width="2.688"/>
<circle clip-path="url(#clip192)" cx="984.876" cy="100.761" r="14.4" fill="#009af9" fill-rule="evenodd" fill-opacity="1" stroke="#000000" stroke-opacity="1" stroke-width="2.688"/>
<circle clip-path="url(#clip192)" cx="1015.04" cy="92.0492" r="14.4" fill="#009af9" fill-rule="evenodd" fill-opacity="1" stroke="#000000" stroke-opacity="1" stroke-width="2.688"/>
<circle clip-path="url(#clip192)" cx="1045.2" cy="85.8262" r="14.4" fill="#009af9" fill-rule="evenodd" fill-opacity="1" stroke="#000000" stroke-opacity="1" stroke-width="2.688"/>
<circle clip-path="url(#clip192)" cx="1075.37" cy="82.0925" r="14.4" fill="#009af9" fill-rule="evenodd" fill-opacity="1" stroke="#000000" stroke-opacity="1" stroke-width="2.688"/>
<circle clip-path="url(#clip192)" cx="1105.53" cy="80.8479" r="14.4" fill="#009af9" fill-rule="evenodd" fill-opacity="1" stroke="#000000" stroke-opacity="1" stroke-width="2.688"/>
<circle clip-path="url(#clip192)" cx="1135.7" cy="82.0925" r="14.4" fill="#009af9" fill-rule="evenodd" fill-opacity="1" stroke="#000000" stroke-opacity="1" stroke-width="2.688"/>
<circle clip-path="url(#clip192)" cx="1165.86" cy="85.8262" r="14.4" fill="#009af9" fill-rule="evenodd" fill-opacity="1" stroke="#000000" stroke-opacity="1" stroke-width="2.688"/>
<circle clip-path="url(#clip192)" cx="1196.03" cy="92.0492" r="14.4" fill="#009af9" fill-rule="evenodd" fill-opacity="1" stroke="#000000" stroke-opacity="1" stroke-width="2.688"/>
<circle clip-path="url(#clip192)" cx="1226.19" cy="100.761" r="14.4" fill="#009af9" fill-rule="evenodd" fill-opacity="1" stroke="#000000" stroke-opacity="1" stroke-width="2.688"/>
<circle clip-path="url(#clip192)" cx="1256.35" cy="111.963" r="14.4" fill="#009af9" fill-rule="evenodd" fill-opacity="1" stroke="#000000" stroke-opacity="1" stroke-width="2.688"/>
<circle clip-path="url(#clip192)" cx="1286.52" cy="125.653" r="14.4" fill="#009af9" fill-rule="evenodd" fill-opacity="1" stroke="#000000" stroke-opacity="1" stroke-width="2.688"/>
<circle clip-path="url(#clip192)" cx="1316.68" cy="141.833" r="14.4" fill="#009af9" fill-rule="evenodd" fill-opacity="1" stroke="#000000" stroke-opacity="1" stroke-width="2.688"/>
<circle clip-path="url(#clip192)" cx="1346.85" cy="160.501" r="14.4" fill="#009af9" fill-rule="evenodd" fill-opacity="1" stroke="#000000" stroke-opacity="1" stroke-width="2.688"/>
<circle clip-path="url(#clip192)" cx="1377.01" cy="181.659" r="14.4" fill="#009af9" fill-rule="evenodd" fill-opacity="1" stroke="#000000" stroke-opacity="1" stroke-width="2.688"/>
<circle clip-path="url(#clip192)" cx="1407.18" cy="205.306" r="14.4" fill="#009af9" fill-rule="evenodd" fill-opacity="1" stroke="#000000" stroke-opacity="1" stroke-width="2.688"/>
<circle clip-path="url(#clip192)" cx="1437.34" cy="231.443" r="14.4" fill="#009af9" fill-rule="evenodd" fill-opacity="1" stroke="#000000" stroke-opacity="1" stroke-width="2.688"/>
<circle clip-path="url(#clip192)" cx="1467.5" cy="260.068" r="14.4" fill="#009af9" fill-rule="evenodd" fill-opacity="1" stroke="#000000" stroke-opacity="1" stroke-width="2.688"/>
<circle clip-path="url(#clip192)" cx="1497.67" cy="291.183" r="14.4" fill="#009af9" fill-rule="evenodd" fill-opacity="1" stroke="#000000" stroke-opacity="1" stroke-width="2.688"/>
<circle clip-path="url(#clip192)" cx="1527.83" cy="324.787" r="14.4" fill="#009af9" fill-rule="evenodd" fill-opacity="1" stroke="#000000" stroke-opacity="1" stroke-width="2.688"/>
<circle clip-path="url(#clip192)" cx="1558" cy="360.88" r="14.4" fill="#009af9" fill-rule="evenodd" fill-opacity="1" stroke="#000000" stroke-opacity="1" stroke-width="2.688"/>
<circle clip-path="url(#clip192)" cx="1588.16" cy="399.462" r="14.4" fill="#009af9" fill-rule="evenodd" fill-opacity="1" stroke="#000000" stroke-opacity="1" stroke-width="2.688"/>
<circle clip-path="url(#clip192)" cx="1618.33" cy="440.533" r="14.4" fill="#009af9" fill-rule="evenodd" fill-opacity="1" stroke="#000000" stroke-opacity="1" stroke-width="2.688"/>
<circle clip-path="url(#clip192)" cx="1648.49" cy="484.094" r="14.4" fill="#009af9" fill-rule="evenodd" fill-opacity="1" stroke="#000000" stroke-opacity="1" stroke-width="2.688"/>
<circle clip-path="url(#clip192)" cx="1678.65" cy="530.143" r="14.4" fill="#009af9" fill-rule="evenodd" fill-opacity="1" stroke="#000000" stroke-opacity="1" stroke-width="2.688"/>
<circle clip-path="url(#clip192)" cx="1708.82" cy="578.682" r="14.4" fill="#009af9" fill-rule="evenodd" fill-opacity="1" stroke="#000000" stroke-opacity="1" stroke-width="2.688"/>
<circle clip-path="url(#clip192)" cx="1738.98" cy="629.71" r="14.4" fill="#009af9" fill-rule="evenodd" fill-opacity="1" stroke="#000000" stroke-opacity="1" stroke-width="2.688"/>
<circle clip-path="url(#clip192)" cx="1769.15" cy="683.227" r="14.4" fill="#009af9" fill-rule="evenodd" fill-opacity="1" stroke="#000000" stroke-opacity="1" stroke-width="2.688"/>
<circle clip-path="url(#clip192)" cx="1799.31" cy="739.234" r="14.4" fill="#009af9" fill-rule="evenodd" fill-opacity="1" stroke="#000000" stroke-opacity="1" stroke-width="2.688"/>
<circle clip-path="url(#clip192)" cx="1829.47" cy="797.729" r="14.4" fill="#009af9" fill-rule="evenodd" fill-opacity="1" stroke="#000000" stroke-opacity="1" stroke-width="2.688"/>
<circle clip-path="url(#clip192)" cx="1859.64" cy="858.714" r="14.4" fill="#009af9" fill-rule="evenodd" fill-opacity="1" stroke="#000000" stroke-opacity="1" stroke-width="2.688"/>
<circle clip-path="url(#clip192)" cx="1889.8" cy="922.188" r="14.4" fill="#009af9" fill-rule="evenodd" fill-opacity="1" stroke="#000000" stroke-opacity="1" stroke-width="2.688"/>
<circle clip-path="url(#clip192)" cx="1919.97" cy="988.151" r="14.4" fill="#009af9" fill-rule="evenodd" fill-opacity="1" stroke="#000000" stroke-opacity="1" stroke-width="2.688"/>
<circle clip-path="url(#clip192)" cx="1950.13" cy="1056.6" r="14.4" fill="#009af9" fill-rule="evenodd" fill-opacity="1" stroke="#000000" stroke-opacity="1" stroke-width="2.688"/>
<circle clip-path="url(#clip192)" cx="1980.3" cy="1127.54" r="14.4" fill="#009af9" fill-rule="evenodd" fill-opacity="1" stroke="#000000" stroke-opacity="1" stroke-width="2.688"/>
<circle clip-path="url(#clip192)" cx="2010.46" cy="1200.97" r="14.4" fill="#009af9" fill-rule="evenodd" fill-opacity="1" stroke="#000000" stroke-opacity="1" stroke-width="2.688"/>
<path clip-path="url(#clip190)" d="M1756.53 190.502 L2000.81 190.502 L2000.81 86.8219 L1756.53 86.8219  Z" fill="#ffffff" fill-rule="evenodd" fill-opacity="1"/>
<polyline clip-path="url(#clip190)" style="stroke:#000000; stroke-linecap:round; stroke-linejoin:round; stroke-width:4; stroke-opacity:1; fill:none" points="1756.53,190.502 2000.81,190.502 2000.81,86.8219 1756.53,86.8219 1756.53,190.502 "/>
<circle clip-path="url(#clip190)" cx="1841.8" cy="138.662" r="20.48" fill="#009af9" fill-rule="evenodd" fill-opacity="1" stroke="#000000" stroke-opacity="1" stroke-width="3.82293"/>
<path clip-path="url(#clip190)" d="M1940.9 158.349 Q1939.1 162.979 1937.39 164.391 Q1935.67 165.803 1932.8 165.803 L1929.4 165.803 L1929.4 162.238 L1931.9 162.238 Q1933.66 162.238 1934.63 161.405 Q1935.6 160.572 1936.78 157.47 L1937.55 155.525 L1927.06 130.016 L1931.58 130.016 L1939.68 150.294 L1947.78 130.016 L1952.29 130.016 L1940.9 158.349 Z" fill="#000000" fill-rule="nonzero" fill-opacity="1" /><path clip-path="url(#clip190)" d="M1959.58 152.007 L1967.22 152.007 L1967.22 125.641 L1958.91 127.308 L1958.91 123.049 L1967.18 121.382 L1971.85 121.382 L1971.85 152.007 L1979.49 152.007 L1979.49 155.942 L1959.58 155.942 L1959.58 152.007 Z" fill="#000000" fill-rule="nonzero" fill-opacity="1" /></svg>
